<?xml version="1.0" encoding="utf-8"?>
<!-- Generator: Adobe Illustrator 18.1.1, SVG Export Plug-In . SVG Version: 6.00 Build 0)  -->
<svg version="1.1" xmlns="http://www.w3.org/2000/svg" xmlns:xlink="http://www.w3.org/1999/xlink" x="0px" y="0px"
	 viewBox="0 0 200 50" enable-background="new 0 0 200 50" xml:space="preserve">
<g id="Layer_1" display="none">
	<g>
		<g display="inline">
			<path fill="#FFFFFF" d="M1354.1792,407.891c-881.8894,0-1763.7791,0-2645.6687,0
				c-0.0001-234.9705-0.0001-469.941-0.0002-704.9116c881.8894-0.0001,1763.7789-0.0001,2645.6687-0.0002
				C1354.179-62.0503,1354.179,172.9203,1354.1792,407.891z"/>
			<path d="M1000.7162,28.8682c3.6968-4.9215,7.5931-9.7076,11.0441-14.7961c5.2108-7.6834,9.3897-16.1854,15.3245-23.2297
				c7.5388-8.948,16.705-16.5042,24.5961-25.182c7.9806-8.7766,16.578-5.1068,24.8887-1.8459
				c11.627,4.5621,18.1027,14.483,24.0336,24.8971c6.3186,11.0952,13.1246,21.9126,19.7136,32.8538
				c0.4294,0.7124,0.9528,1.4014,1.2159,2.175c3.5088,10.3201,12.2089,15.9646,20.35,21.8588
				c2.6459,1.9158,7.049,2.9746,10.2229,2.3298c17.2297-3.5001,34.3225-7.672,51.4735-11.564
				c1.9263-0.4371,3.9275-0.8325,5.884-0.7909c4.8676,0.1036,7.1664,2.3413,7.0492,7.0975
				c-0.1572,6.3719-0.5249,12.7679-7.1207,16.4441c-0.8373,0.4666-1.6289,1.279-2.0857,2.1238
				c-6.3727,11.7872-17.6472,16.3789-29.4165,20.4622c-6.4081,2.2233-12.3859,5.9808-18.9172,7.4986
				c-17.6296,4.0968-33.803,0.3274-48.389-10.6198c-10.9432-8.2131-19.7898-18.2097-26.7549-29.8832
				c-5.5011-9.2196-10.8165-18.5558-15.9773-27.9702c-2.9054-5.3003-5.4541-6.1811-9.278-1.5069
				c-5.6162,6.8654-10.9194,14.0591-15.6577,21.5543c-7.8076,12.3506-14.0829,25.7893-22.8374,37.3852
				c-7.5093,9.9467-17.4222,18.133-26.6747,26.6611c-1.6978,1.5651-5.6929,2.0878-7.9924,1.2813
				c-7.1549-2.5094-14.7675-4.8739-20.6808-9.319c-3.4393-2.5854-4.8495-8.9121-5.6057-13.798
				c-1.3939-9.0046-1.8255-18.1777-2.3103-27.2991c-0.7809-14.6911-1.3052-29.3962-1.8831-44.0976
				c-0.1738-4.429,0.2893-8.9336-0.3637-13.2797c-0.7309-4.8651-3.0895-5.3295-6.777-2.1076
				c-5.8469,5.1088-11.8518,10.0376-17.6833,15.1634c-1.8545,1.63-3.3731,3.6428-5.0416,5.4839
				c-3.6741,4.0545-7.2584,8.1948-11.0391,12.1472c-5.6172,5.8717-11.5322,11.4651-17.0142,17.4572
				c-3.7888,4.1415-4.6389,8.9621-3.5059,14.7922c1.7022,8.757,2.6071,17.7321,3.0585,26.6545
				c0.713,14.1131,0.4401,28.2776,1.2191,42.3853c0.5287,9.5746,2.2341,19.0797,3.2472,28.6335
				c0.9974,9.403,1.9431,18.8167,2.6285,28.2463c1.0699,14.7259,2.2058,29.4593,2.6862,44.2099
				c0.1979,6.0702-1.0956,12.2128-1.9551,18.2879c-1.1337,8.0112-2.3478,16.0186-3.8411,23.9687
				c-0.8525,4.5393-2.4203,8.9398-3.4876,13.445c-0.6457,2.7241-0.4653,5.727-1.4998,8.2599
				c-2.8846,7.0631-5.9993,14.0544-9.4866,20.8356c-1.0609,2.0628-3.4749,3.584-5.5376,4.9463
				c-4.7158,3.1144-9.6087,4.7831-15.492,2.7062c-7.6929-2.7155-13.6086-7.1434-19.3389-13.1472
				c-7.8777-8.2534-11.6069-18.1763-15.0984-28.2983c-2.9569-8.5717-4.7511-17.5716-6.6771-26.465
				c-2.7643-12.7649-6.1965-25.5104-7.4048-38.4452c-0.8717-9.3335-2.6948-18.2389-4.6882-27.3013
				c-1.4263-6.4841-0.7094-13.4282-1.0753-20.1602c-0.3779-6.952-1.0616-13.8901-1.318-20.8451
				c-0.1699-4.608-0.0903-9.2609,0.3508-13.8483c0.8407-8.7419,1.8931-17.469,3.1133-26.1663
				c0.5737-4.0879,1.7498-8.0907,2.6379-12.1353c1.5062-6.8578,0.7343-8.058-6.2119-7.6589
				c-4.7629,0.2736-9.4542,1.6282-14.217,2.1041c-12.4233,1.2414-23.9606-1.7157-34.5905-8.1231
				c-2.8278-1.7044-5.585-3.7115-7.9003-6.0493c-12.8423-12.966-17.5391-28.0941-13.2936-46.286
				c2.3201-9.942,5.1678-19.4243,9.9606-28.4703c3.933-7.423,6.2917-15.7151,10.5106-22.9437
				c6.3144-10.8193,13.3672-21.245,20.6683-31.435c3.5552-4.962,8.7367-8.0272,15.512-6.754
				c3.2593,0.6125,6.61,0.7329,9.9177,1.0931c11.0333,1.2014,21.1086,11.5168,21.4441,22.5852
				c0.0829,2.7502-1.0077,6.07-2.697,8.243c-5.8875,7.5733-12.4701,14.605-18.3807,22.1614
				c-2.6203,3.3496-4.6516,7.3031-6.2807,11.2582c-4.7211,11.4605-9.243,23.0097-13.4842,34.6548
				c-0.7301,2.0042-0.54,5.7839,0.7228,6.717c1.6626,1.2289,5.1915,1.3107,7.2462,0.3885
				c8.1535-3.6597,16.0673-7.8591,24.0266-11.9435c5.7588-2.9553,11.5845-5.8176,17.1363-9.1299
				c7.4585-4.4495,15.4214-3.5603,23.2607-2.394c4.5192,0.6723,7.6523-0.5059,10.7035-3.5589
				c11.1653-11.1714,22.3644-22.3114,33.6823-33.3275c14.7601-14.3661,29.6596-28.5886,44.4713-42.902
				c6.0532-5.8496,12.8019-10.6026,20.8819-13.1671c1.8372-0.5831,4.0271-0.9132,5.8611-0.5002
				c8.7841,1.9774,17.2254,4.9048,20.8643,14.2012c1.1888,3.0376,1.0287,6.6679,1.1652,10.04
				c0.3425,8.4642,0.5703,16.9346,0.7175,25.4047c0.1989,11.4429,0.1857,22.8902,0.4606,34.3308
				c0.1015,4.218,0.764,8.4226,1.1707,12.6332C999.4891,28.4122,1000.1026,28.6402,1000.7162,28.8682z"/>
			<path d="M-483.0236,113.5247c-0.3995,7.8052-1.3539,16.7536-1.1794,25.6799c0.1864,9.5409-2.0023,19.1474,0.6072,28.6483
				c0.284,1.0341-0.1758,2.2698-0.2784,3.4131c-0.7684,8.5611-1.9097,17.1089-2.2199,25.6867
				c-0.6011,16.6213-0.8011,33.2586-1.0347,49.8911c-0.1292,9.1954,0.1576,18.3978-0.0373,27.5908
				c-0.0908,4.283-0.5378,8.6251-1.4401,12.8073c-1.1356,5.2643-12.1863,14.0105-17.4354,12.8243
				c-5.0669-1.145-10.4714-3.6185-14.2354-7.1148c-7.6587-7.1143-9.7795-16.1627-7.3114-26.7822
				c1.6292-7.0093,1.2939-14.5139,1.5043-21.8064c0.4831-16.7403,0.7827-33.4861,1.118-50.2305
				c0.3623-18.0836,0.6284-36.1693,1.0451-54.2515c0.157-6.8088,1.1315-13.6339,0.8249-20.4104
				c-0.4938-10.921-1.5214-21.8324-2.7343-32.702c-1.0964-9.8249-2.65-19.6029-4.1811-29.3736
				c-0.9424-6.0142-2.9323-6.6105-8.3562-3.6031c-12.433,6.8939-24.7472,14.079-37.5845,20.1401
				c-8.7526,4.1324-18.8766,4.0433-27.9677,1.8901c-6.0193-1.4256-11.0208-7.0066-16.5714-10.5823
				c-11.1307-7.1702-9.0866-18.2883-8.2896-28.7104c0.6228-8.1453,2.1432-16.2644,3.8239-24.2779
				c3.722-17.7479,12.2241-33.2359,23.329-47.3979c0.9203-1.1737,1.9437-2.2788,2.758-3.5214
				c6.0244-9.1923,14.7506-14.6026,24.9707-17.934c6.2158-2.0262,14.7374,2.4507,16.5108,8.7211
				c0.7648,2.7038,1.881,5.4637,1.8676,8.1934c-0.0173,3.5171-0.272,7.3837-1.7527,10.4605
				c-2.2017,4.5749-5.5798,8.5812-8.4339,12.8452c-8.4467,12.6192-15.654,25.819-18.194,41.022
				c-0.3987,2.387,0.4583,4.9838,0.7346,7.4835c2.5686-0.8547,5.5548-1.1387,7.6353-2.6607
				c10.2954-7.5316,20.138-15.6933,30.5579-23.0405c8.7067-6.1393,18.9247-6.6857,28.6695-3.5911
				c7.3981,2.3495,13.9401,4.1488,20.6124-1.2274c1.0072-0.8115,3.0103-1.2109,4.2235-0.8085
				c7.6141,2.5251,15.152,5.1504,18.0938,13.9656c3.4875,10.4505,7.5215,20.7212,10.8993,31.2049
				c2.2766,7.0663,7.1689,8.9418,11.8633,3.4048c7.2594-8.5626,13.9773-17.593,20.7396-26.5645
				c3.182-4.2216,6.3101-8.5649,8.8088-13.2051c7.5404-14.0033,14.4381-28.36,22.2188-42.224
				c5.1556-9.1864,13.0343-15.2738,23.9866-16.7494c9.8151-1.3223,19.8056,3.1431,25.1112,11.64
				c0.4402,0.705,0.823,1.5183,1.4409,2.0293c10.8138,8.9429,13.4526,22.2595,17.8475,34.4254
				c4.8205,13.3441,8.2811,27.1767,12.4207,40.7701c3.8128,12.5203,7.5133,25.0825,11.702,37.4779
				c2.5318,7.4921,5.5322,14.8797,8.9796,21.9957c4.8885,10.0903,5.079,9.8724,17.2518,6.8439
				c0.8002-0.1991,1.5339-0.6554,2.3294-0.8847c4.5081-1.2994,8.6199-0.6939,11.8586,2.929
				c2.5055,2.8026,2.3549,8.0954-0.2051,12.1536c-3.6948,5.8572-7.712,11.53-11.0922,17.5614
				c-3.3511,5.9793-9.1323,8.3479-14.8755,8.4935c-13.6627,0.3463-25.326-4.1773-32.0946-17.344
				c-2.5011-4.8654-6.1927-9.2077-8.1408-14.2523c-6.2522-16.1889-12.0665-32.5513-17.8089-48.9311
				c-4.0009-11.4123-7.5793-22.9723-11.3985-34.449c-2.4012-7.2157-4.5804-14.5298-7.457-21.5549
				c-2.1815-5.3275-5.1507-5.501-7.9731-0.6383c-3.8888,6.6997-7.2199,13.7206-10.9175,20.5347
				c-1.8943,3.4909-4.1053,6.8083-6.1045,10.2441c-4.5644,7.8443-8.1494,16.4815-13.8275,23.4067
				c-10.6894,13.0372-21.2372,26.523-36.8439,34.4531c-4.9871,2.534-9.6364,5.8529-14.8081,7.8691
				c-5.094,1.9859-10.2285,1.7075-14.8231-2.5778c-1.5125-1.4107-5.106-1.6496-7.2355-0.9229
				c-1.1876,0.4053-1.5115,3.8663-1.8641,6.0096C-483.6227,109.3445-483.2253,110.8836-483.0236,113.5247z"/>
			<path d="M430.7922,167.3033c-20.2356,1.1227-35.2489-8.5786-49.7592-19.4483c-1.4131-1.0587-2.5778-2.6449-3.4377-4.2161
				c-7.5522-13.7998-18.3571-14.2102-30.176-10.5816c-8.3755,2.5715-15.3547,1.6552-20.9474-5.5767
				c-0.8923-1.1538-2.1237-2.2016-3.421-2.86c-7.3614-3.7364-10.8235-13.8152-7.8087-22.5714
				c2.7368-7.949,7.7301-13.945,16.0149-16.5484c1.6553-0.5202,3.6283-0.7154,5.303-0.3549
				c4.2924,0.9239,8.1342,0.2643,12.0132-1.7567c3.478-1.812,4.937-4.3399,5.3588-8.2355
				c1.6571-15.3032,5.1418-29.9739,14.2687-42.93c4.1077-5.8311,7.7019-11.7859,13.1251-16.7486
				c11.2643-10.3075,24.5647-13.5225,39.1024-12.762c9.9857,0.5224,23.5275,10.8711,24.6283,20.1685
				c0.797,6.7315-1.4123,14.0289-3.2643,20.8052c-1.8632,6.8173-4.9192,13.3113-7.5093,19.9247
				c-0.4756,1.2142-1.1326,2.3826-1.8607,3.4683c-3.6641,5.4628-7.3767,10.8929-11.0792,16.3298
				c-0.7471,1.097-1.2862,2.5722-2.327,3.1936c-5.9955,3.5803-8.8409,9.641-12.6744,15.0268
				c-2.886,4.0546-2.6674,7.707-0.7613,11.6012c5.2563,10.7386,21.0771,14.6396,31.1758,8.0915
				c7.8192-5.0701,13.9024-11.7384,19.5145-19.0425c8.7389-11.3738,13.3377-24.6102,17.7495-37.9756
				c1.3006-3.9402,2.9675-7.7607,4.2343-11.7106c3.9461-12.3043,8.5314-24.4765,11.3426-37.0414
				c1.4061-6.2846,0.5328-13.5916-1.179-19.9313c-2.1294-7.8859-1.4193-14.2187,4.0827-20.2857
				c5.5684-6.14,11.5629-10.5374,20.4646-8.1716c5.2906,1.4061,10.6884,2.4236,15.9451,3.9382
				c5.3476,1.5407,9.5411,4.7606,11.6965,10.0558c5.4269,13.3315,13.505,24.603,24.5176,34.0112
				c12.0984,10.3361,24.5398,20.4845,35.2693,32.1517c11.6659,12.6853,20.2498,27.5484,20.3593,45.8243
				c0.0216,3.6152,0.4296,7.3906,1.5533,10.7973c1.5491,4.697,1.1535,9.1294-0.0581,13.6793
				c-3.8888,14.6041-7.7253,29.2136-15.7172,42.3163c-1.2615,2.0685-1.6068,4.6811-2.4837,7.0014
				c-5.1094,13.5205-16.301,19.8345-29.3369,21.854c-7.0828,1.0972-13.4528-3.9932-17.5415-10.4262
				c-1.3329-2.0974-2.1596-4.5122-3.444-6.6457c-4.0773-6.7729-2.5303-15.3076,4.2809-18.9639
				c6.3046-3.3842,10.1343-8.2136,12.2551-14.8776c2.4467-7.6876,5.7226-15.1439,7.7108-22.9373
				c3.1365-12.2935,0.0129-23.9146-6.6193-34.2888c-6.5435-10.2352-14.3687-19.4342-25.4092-25.4663
				c-4.2921-2.345-7.8833-5.9596-11.8411-8.9328c-4.055-3.0464-4.8439-2.7248-6.5299,2.0116
				c-5.2141,14.6479-9.6807,29.6335-15.9786,43.8031c-5.9677,13.4261-13.2193,26.4095-21.1286,38.8079
				c-7.593,11.9028-18.8061,20.4312-31.2296,27.1752c-3.0682,1.6655-6.2698,3.0845-9.339,4.748
				C443.6278,166.1982,437.1456,168.5381,430.7922,167.3033z"/>
			<path d="M251.5288-12.1038c1.0592-2.7648,1.9636-4.2072,2.1363-5.7325c0.8587-7.5796,1.3399-15.2046,2.3086-22.7682
				c1.0519-8.2136,2.0006-16.4935,3.8939-24.5325c2.2652-9.6172,4.3499-19.3184,9.3295-28.1653
				c6.6721-11.8535,16.0471-20.9516,27.9875-26.847c5.4717-2.7016,11.7671-1.8076,17.9566,1.707
				c6.8986,3.9173,10.2956,10.6385,15.7105,15.6327c0.9875,0.9108,1.4807,2.5932,1.7478,4.0053
				c0.7987,4.2213,1.8319,8.4737,1.9386,12.7348c0.2276,9.0929-0.0647,18.1991-0.1561,27.2997
				c-0.0461,4.5999,0.5191,9.318-0.3088,13.7753c-1.8446,9.9317-4.4893,19.7119-6.6299,29.5923
				c-3.5718,16.4859-10.011,31.8589-17.569,46.8542c-3.2842,6.5158-6.0368,13.2995-9.0252,19.9641
				c-0.5415,1.208-0.788,2.6674-1.6249,3.605c-6.3185,7.0783-5.2313,15.2929-3.9081,23.6131
				c1.5595,9.8072,2.6231,19.7124,4.643,29.4209c1.409,6.772,3.8649,13.3603,6.325,19.8518
				c0.5152,1.3593,3.0549,2.6579,4.7342,2.7568c12.3352,0.7262,17.7352,5.8059,18.7442,18.0295
				c0.1495,1.8102,0.3788,3.6518,0.8827,5.3886c2.9119,10.041,1.1597,16.198-7.75,22.0138
				c-5.0776,3.3144-10.8606,5.7903-16.6337,7.7264c-5.3716,1.8014-9.5633-1.9371-13.3173-5.1731
				c-7.0271-6.0573-12.1705-13.4569-15.5043-22.235c-3.9942-10.5179-8.528-20.8301-12.7179-31.2757
				c-0.5982-1.4911-0.3875-3.294-0.9032-4.8348c-0.3806-1.1371-1.1335-2.4864-2.1043-2.9687
				c-0.6292-0.3126-2.1515,0.5449-2.9291,1.2551c-8.5763,7.8332-16.5121,16.5063-25.762,23.4273
				c-10.7705,8.0587-20.9071,17.8414-34.7416,20.583c-6.1978,1.2281-12.8665,1.5562-19.1128,0.7249
				c-9.852-1.3112-13.2536-10.0353-17.2424-17.6405c-5.2374-9.9862-3.7825-20.6563-2.728-31.1804
				c0.7586-7.5704,1.3871-15.2882,3.4091-22.5695c4.0622-14.6288,8.7537-29.1026,13.7311-43.4511
				c3.5754-10.3064,7.9513-20.3407,12.1297-30.4304c3.1064-7.5008,6.2617-14.9955,9.7876-22.3037
				c2.5074-5.197,5.4567-10.2153,8.5913-15.0661c3.683-5.6993,14.8306-9.3429,21.4337-7.4254
				c1.5936,0.4627,3.1953,1.0907,4.824,1.2054c6.3421,0.4465,10.816,3.7623,14.3343,8.7816
				C248.3508-15.4548,249.5381-14.3481,251.5288-12.1038z"/>
			<path d="M-894.2329,140.4263c-9.9969,1.1147-18.3535-2.6957-25.93-8.5094c-2.0338-1.5606-3.4413-3.9767-5.0145-6.0908
				c-4.0886-5.494-7.7606-6.1016-13.2592-2.4358c-8.0681,5.3787-16.7651,8.1822-26.3143,4.5808
				c-2.6336-0.9932-4.8442-3.2193-7.0986-5.0634c-1.2703-1.039-1.9982-2.9117-3.3759-3.6196
				c-6.5267-3.3537-6.5497-9.7837-7.6472-15.6587c-0.2463-1.318,0.2864-2.9327,0.8661-4.2295
				c3.7647-8.4227,9.7808-13.8324,18.7034-17.3588c7.8362-3.0971,14.8188-8.6066,21.7542-13.6357
				c4.1735-3.0263,4.6921-8.0205,4.7491-13.0948c0.0411-3.6615,1.3494-7.298,1.9669-10.9668
				c0.6859-4.0749,1.4119-8.1565,1.8022-12.2655c1.6009-16.8518,6.6697-32.7173,12.8594-48.3791
				c3.9172-9.9115,9.686-18.5927,16.2995-26.6542c4.3669-5.323,10.2299-9.1099,17.9435-6.6225
				c3.936,1.2692,7.9025,2.4454,11.8276,3.7468c0.9252,0.3067,2.0745,0.7319,2.5525,1.4704
				c4.6661,7.2087,10.8343,13.0997,11.7289,22.9143c1.4124,15.4942-0.189,30.5372-3.494,45.4046
				c-1.8823,8.4672-5.1943,16.8437-9.2152,24.5557c-6.1773,11.8483-13.7053,22.985-20.249,34.6541
				c-1.8716,3.3375-2.6979,7.4103-3.3236,11.2566c-0.6664,4.0971,1.8586,6.3742,5.8403,6.271
				c2.739-0.0709,5.8123-0.3665,8.1246-1.6573c15.3178-8.5508,28.7143-19.1422,39.9829-33.0222
				c8.5649-10.55,15.8915-21.5565,22.0712-33.5037c5.1714-9.9978,7.0659-20.8083,6.4056-31.8202
				c-0.2847-4.7474-3.2471-9.3079-4.7996-14.017c-0.7526-2.2826-1.4691-4.7117-1.4721-7.0754
				c-0.0045-3.6239,0.4669-7.2721,1.0163-10.8672c0.7943-5.1972,3.9279-8.9824,8.6807-10.7251
				c15.028-5.5104,28.6489-2.3861,35.8174,14.0185c2.0339,4.6543,6.0536,8.6587,9.8141,12.2858
				c4.7556,4.587,10.0795,8.6108,15.3359,12.6462c6.9501,5.3357,14.2332,10.247,21.058,15.7329
				c3.8554,3.099,7.4322,6.7029,10.5154,10.5726c7.0975,8.908,11.6677,18.4763,9.8536,30.6821
				c-1.215,8.1746-5.1876,14.5458-9.3748,21.0602c-3.3116,5.152-6.5879,10.3795-10.4318,15.1264
				c-10.7879,13.3222-23.2563,23.7959-41.9879,22.1578c-7.761-0.6787-18.4625-10.7356-19.0261-18.3571
				c-0.4463-6.035,3.2642-10.3626,7.7632-13.7443c2.6153-1.9659,5.7189-3.3454,8.7286-4.7115
				c9.5948-4.3553,15.4901-12.2617,20.0521-21.2253c3.9299-7.7216-1.6716-15.026-8.0847-20.5194
				c-2.4929-2.1354-5.5852-3.5852-8.4528-5.2647c-2.823-1.6534-5.205-1.1827-6.4881,1.975
				c-1.7996,4.4288-3.3936,8.9411-5.0679,13.4205c-0.1155,0.3089-0.0839,0.7002-0.2618,0.9543
				c-7.7612,11.0843-10.9349,24.8859-21.1514,34.608c-5.6106,5.3391-10.1079,11.8321-15.2813,17.6499
				c-9.4974,10.6805-19.6039,20.6975-31.9481,28.1676c-2.8433,1.7206-5.6529,3.5001-8.4317,5.323
				C-868.5535,137.9475-881.3095,139.6151-894.2329,140.4263z"/>
			<path d="M-1115.8846-101.1621c6.7899-0.4237,13.6182-1.5066,20.3605-1.1131c9.5798,0.5592,19.1881,1.7185,28.6185,3.499
				c14.2532,2.6909,27.2018,8.5671,39.5029,16.4742c12.0191,7.7259,18.8207,19.2048,25.6906,30.8966
				c0.4995,0.8501,0.9034,1.7994,1.1388,2.7551c3.7968,15.4185,8.8969,30.6751,10.8912,46.3264
				c1.5035,11.8-0.6364,24.1404-1.7657,36.1829c-1.9092,20.3562-8.9868,39.3349-17.3534,57.7272
				c-4.1632,9.152-10.1892,17.4585-15.3969,26.1329c-3.5881,5.9766-6.774,12.2594-10.9238,17.8201
				c-7.9397,10.6387-13.8585,22.8802-26.0732,30.1575c-5.9924,3.5701-11.835,3.7234-18.1091,3.6563
				c-0.9315-0.01-1.9843-0.3495-2.7667-0.8629c-10.3623-6.7987-14.9495-18.961-11.2805-30.8596
				c0.7229-2.3443,2.8783-4.3197,4.5935-6.2716c5.1223-5.8295,10.8641-11.1908,15.4148-17.4276
				c5.7406-7.8676,10.0066-16.8262,15.8802-24.5781c8.4237-11.1177,12.1306-24.3963,18.3127-36.5179
				c9.4308-18.4916,9.1078-38.4428,9.1511-58.3566c0.0045-2.1297-0.6217-4.2645-0.9908-6.3908
				c-1.3209-7.6084-1.8762-15.4619-4.1912-22.7561c-2.7043-8.5209-6.8051-16.7896-15.4003-21.1686
				c-6.067-3.091-12.416-5.3178-19.5269-5.2901c-7.2542,0.0283-14.5121-0.8589-21.7681-1.3501
				c-0.4976-0.0337-0.993-0.1605-1.4884-0.1544c-12.1986,0.149-15.3403,1.8921-14.2795,15.91
				c0.6263,8.2782,1.3895,16.5586,2.4777,24.7869c3.4537,26.1172,7.3025,52.1556,8.2607,78.5736
				c0.4349,11.9918,0.3297,23.7912-1.3196,35.6435c-1.2399,8.9109-13.5559,19.5075-22.5295,18.967
				c-1.2728-0.0767-2.7649-0.4464-3.7179-1.2199c-4.1052-3.332-8.3724-6.5726-11.8817-10.4751
				c-1.3201-1.468-1.5571-4.8974-0.895-6.9924c3.1613-10.0026,3.9254-19.9472,2.7316-30.4598
				c-1.0378-9.1384,0.3728-18.5273-0.0728-27.7683c-0.4463-9.2533-1.7203-18.4768-2.871-27.6834
				c-1.3528-10.8243-2.8301-21.6371-4.5046-32.4158c-1.2976-8.352-2.9478-16.6504-4.5339-24.9549
				c-0.2108-1.1037-0.7931-2.2443-1.5024-3.1276c-4.8522-6.0421-9.7815-12.0225-14.6949-18.0154
				c-0.521-0.6354-1.2596-1.1411-1.6238-1.8478c-1.3916-2.7005,0.792-15.7939,3.4512-17.3791
				c5.2228-3.1134,10.5625-6.8452,16.3281-8.0482c9.3243-1.9455,19.0316-2.0561,28.5771-2.9416
				C-1115.9382-101.7737-1115.9115-101.4679-1115.8846-101.1621z"/>
			<path d="M632.834,24.0065c0.0011-12.9668,3.7335-19.2497,14.124-22.0459c3.2939-0.8864,7.4758-0.77,10.5927,0.5018
				c5.1442,2.0991,9.8961,5.3037,14.5004,8.4943c1.3946,0.9664,1.9938,3.3536,2.55,5.2118
				c3.2202,10.7584,5.6816,21.7956,9.6622,32.258c3.0942,8.1321,8.2628,15.4503,12.0958,23.3314
				c6.0107,12.3583,11.701,24.8889,13.971,38.5998c0.3057,1.846,0.2294,4.4201-0.827,5.709
				c-4.0808,4.9794-8.2858,9.969-13.1155,14.1864c-3.7897,3.3092-8.6162,2.8711-13.1304,0.5132
				c-12.2474-6.3969-18.8943-16.8259-23.0075-29.7527c-3.0953-9.7271-7.7256-18.9683-11.7181-28.4064
				c-3.8586-9.1212-8.1705-18.0749-11.5349-27.3729c-2.4379-6.7378-3.6541-13.9178-5.4152-20.9005
				C631.999,24.2247,632.4165,24.1156,632.834,24.0065z"/>
			<path d="M-680.7668-26.7769c12.5407,0.4531,19.1799,3.669,23.1083,12.2458c6.5029,14.1977,12.1614,28.6418,15.4978,43.9266
				c2.0085,9.2014,4.2391,18.3718,5.7581,27.6562c0.952,5.8189,1.7618,11.975,0.8873,17.7134
				c-1.819,11.935-16.181,18.0516-26.5476,11.6324c-12.5427-7.7668-19.5842-18.9814-19.9499-34.0243
				c-0.0439-1.8065-0.3618-3.6274-0.7413-5.4012c-1.8366-8.5839-3.7694-17.1471-5.6072-25.7307
				c-1.9398-9.0598-3.6542-18.1707-5.7502-27.1934C-696.9015-17.9615-689.3948-27.4668-680.7668-26.7769z"/>
			<path d="M1256.5078-252.5868c-4.8458,1.5198-9.7234,2.947-14.5267,4.5905c-3.451,1.1808-6.709,3.2678-10.228,3.8079
				c-3.1779,0.4877-7.2803,0.4262-9.7097-1.239c-2.387-1.6359-5.1781-7.1266-4.3115-8.2568
				c2.9576-3.8568,6.9886-7.7828,11.4427-9.4286c12.2406-4.523,25.0234-7.5587,37.3632-11.8409
				c9.8181-3.4072,20.5226-0.9761,22.423,11.1324c0.2722,1.7331,0.2964,3.7321-0.2985,5.3361
				c-2.9557,7.9728-3.4706,15.9544-2.3994,24.4503c0.7533,5.975-0.705,12.2175-1.0677,18.347
				c-0.6368,10.7603-1.365,21.5197-1.7209,32.2906c-0.2583,7.8115-0.2236,15.6517,0.1233,23.4594
				c0.464,10.4408,1.2521,20.8712,2.1211,31.2877c0.3055,3.6598,1.8801,5.9769,6.296,4.0581
				c4.9481-2.1501,7.0463,1.8602,9.7019,4.8247c2.5388,2.834,3.4508,5.5514,1.0614,8.9035
				c-3.2405,4.5463-6.0051,9.4943-9.6689,13.6585c-3.5496,4.0346-8.7313,5.376-14.0748,5.2639
				c-7.2543-0.1522-11.9028-4.318-10.798-11.348c2.8378-18.0509,1.0753-36.1587,0.1084-54.0384
				c-1.4137-26.1263,1.6445-52.0921,0.4728-78.1266c-0.1111-2.4715-0.2083-4.998-0.7853-7.3844
				C1266.0632-250.9807,1265.12-251.6317,1256.5078-252.5868z"/>
			<path fill="#FFFFFF" d="M854.2487,113.5911c0.8525,7.2071,1.7603,14.4082,2.5453,21.6226
				c1.5067,13.8471,3.0016,27.6959,4.3754,41.5565c0.4418,4.4548,0.396,8.9559,0.7363,13.4234
				c0.5004,6.5691,1.3084,13.1183,1.6689,19.6933c0.2156,3.9301-0.2197,7.8925-0.2778,11.8417
				c-0.0928,6.2924,0.0273,12.5921-0.2449,18.8756c-0.0939,2.1692-1.0914,4.2993-2.0456,7.8057
				c-1.3431-2.1574-2.1777-2.9636-2.3823-3.9066c-3.0475-14.0512-6.199-28.0844-8.9235-42.1996
				c-1.596-8.2681-2.9022-16.6412-3.5491-25.0279c-0.5065-6.5743-0.0652-13.2617,0.424-19.864
				c0.8563-11.5504,1.9102-23.093,3.2443-34.5969c0.3691-3.1839,2.0197-6.2192,3.0823-9.3227
				C853.3511,113.5253,853.7998,113.5582,854.2487,113.5911z"/>
			<path fill="#FFFFFF" d="M205.6946,104.1841c0-0.1664-0.0452-0.3484,0.0065-0.4968c3.3977-9.7583,6.6606-19.5666,10.2545-29.2522
				c2.6898-7.2493,5.7117-14.3809,8.7543-21.4929c5.9437-13.8932,12.1562-27.6564,22.6762-38.8734
				c1.0117-1.0787,2.532-1.6804,3.8163-2.5035c0.5636,1.4536,1.636,2.916,1.6107,4.3591
				c-0.2121,12.0818,0.1705,24.2575-1.2923,36.2008c-0.8108,6.6188-4.1367,13.2279-7.5049,19.1753
				c-7.8357,13.8351-18.9062,25.0008-31.2041,34.9692c-0.3873,0.3139-0.6902,0.8162-1.1251,0.9719
				c-1.6172,0.5789-3.3962,1.6345-4.865,1.3255c-0.7897-0.1661-1.0719-2.744-1.5831-4.2337
				C205.3905,104.2837,205.5426,104.2339,205.6946,104.1841z"/>
		</g>
	</g>
	<g>
		<path display="inline" d="M-137.4761,49.0234c-2.7203,0.3033-4.9943-0.7336-7.056-2.3156
			c-0.5534-0.4247-0.9364-1.0821-1.3645-1.6574c-1.1126-1.495-2.1118-1.6603-3.6081-0.6628
			c-2.1955,1.4636-4.5621,2.2265-7.1606,1.2465c-0.7166-0.2703-1.3182-0.876-1.9316-1.3778
			c-0.3457-0.2827-0.5437-0.7923-0.9186-0.9849c-1.776-0.9126-1.7823-2.6623-2.0809-4.261c-0.067-0.3587,0.078-0.798,0.2357-1.1509
			c1.0244-2.292,2.6615-3.764,5.0895-4.7236c2.1324-0.8428,4.0325-2.342,5.9197-3.7105c1.1357-0.8235,1.2768-2.1825,1.2923-3.5633
			c0.0112-0.9964,0.3672-1.9859,0.5352-2.9843c0.1866-1.1089,0.3842-2.2195,0.4904-3.3377
			c0.4356-4.5857,1.8149-8.9029,3.4993-13.1648c1.0659-2.6971,2.6357-5.0594,4.4354-7.2531
			c1.1883-1.4485,2.7837-2.479,4.8828-1.8021c1.0711,0.3454,2.1504,0.6654,3.2185,1.0196c0.2518,0.0835,0.5645,0.1992,0.6946,0.4001
			c1.2697,1.9616,2.9482,3.5646,3.1916,6.2354c0.3843,4.2162-0.0515,8.3097-0.9508,12.3554
			c-0.5122,2.3041-1.4135,4.5834-2.5076,6.682c-1.681,3.2241-3.7295,6.2546-5.5101,9.43c-0.5093,0.9082-0.7342,2.0165-0.9044,3.0631
			c-0.1814,1.1149,0.5058,1.7345,1.5892,1.7065c0.7453-0.0193,1.5816-0.0997,2.2108-0.451c4.1682-2.3268,7.8136-5.2089,10.88-8.9859
			c2.3307-2.8708,4.3243-5.8659,6.006-9.1169c1.4072-2.7206,1.9228-5.6623,1.7431-8.6588
			c-0.0775-1.2918-0.8836-2.5328-1.3061-3.8143c-0.2048-0.6211-0.3998-1.2821-0.4006-1.9253
			c-0.0012-0.9861,0.127-1.9789,0.2766-2.9572c0.2161-1.4143,1.0689-2.4443,2.3622-2.9185
			c4.0894-1.4995,7.7959-0.6493,9.7465,3.8147c0.5534,1.2665,1.6473,2.3562,2.6706,3.3432
			c1.2941,1.2482,2.7428,2.3432,4.1731,3.4412c1.8913,1.4519,3.8731,2.7884,5.7302,4.2812c1.0491,0.8433,2.0224,1.824,2.8614,2.877
			c1.9314,2.424,3.175,5.0277,2.6813,8.3491c-0.3306,2.2245-1.4116,3.9582-2.551,5.7308c-0.9012,1.4019-1.7927,2.8244-2.8387,4.1162
			c-2.9356,3.6252-6.3284,6.4753-11.4256,6.0295c-2.1119-0.1847-5.024-2.9213-5.1773-4.9953
			c-0.1214-1.6422,0.8882-2.8198,2.1125-3.7401c0.7117-0.5349,1.5562-0.9103,2.3752-1.2821
			c2.6109-1.1851,4.2151-3.3366,5.4565-5.7758c1.0694-2.1012-0.4549-4.0888-2.2-5.5837c-0.6783-0.5811-1.5198-0.9756-2.3001-1.4326
			c-0.7682-0.4499-1.4164-0.3218-1.7655,0.5374c-0.4897,1.2051-0.9234,2.433-1.3791,3.652
			c-0.0314,0.0841-0.0228,0.1905-0.0712,0.2597c-2.112,3.0162-2.9756,6.7719-5.7557,9.4174
			c-1.5267,1.4529-2.7505,3.2197-4.1583,4.8028c-2.5844,2.9064-5.3346,5.6321-8.6936,7.6649
			c-0.7737,0.4682-1.5382,0.9524-2.2944,1.4485C-130.4883,48.3489-133.9594,48.8027-137.4761,49.0234z"/>
		<path display="inline" d="M-197.7914-16.7169c1.8476-0.1153,3.7057-0.41,5.5404-0.3029c2.6069,0.1522,5.2214,0.4676,7.7876,0.9521
			c3.8786,0.7322,7.4021,2.3312,10.7494,4.4829c3.2706,2.1023,5.1214,5.2259,6.9908,8.4075
			c0.1359,0.2313,0.2458,0.4897,0.3099,0.7497c1.0332,4.1956,2.421,8.3472,2.9637,12.6062c0.4091,3.211-0.1732,6.569-0.4805,9.846
			c-0.5195,5.5393-2.4455,10.7037-4.7222,15.7086c-1.1329,2.4904-2.7727,4.7508-4.1898,7.1112
			c-0.9764,1.6263-1.8433,3.336-2.9726,4.8492c-2.1605,2.895-3.7711,6.2261-7.095,8.2064
			c-1.6306,0.9715-3.2205,1.0132-4.9278,0.9949c-0.2535-0.0027-0.5399-0.0951-0.7529-0.2348
			c-2.8198-1.85-4.068-5.1596-3.0696-8.3974c0.1967-0.6379,0.7832-1.1755,1.25-1.7066c1.3939-1.5863,2.9563-3.0452,4.1946-4.7423
			c1.5621-2.1409,2.723-4.5787,4.3213-6.6881c2.2923-3.0253,3.301-6.6387,4.9832-9.9371
			c2.5663-5.0319,2.4784-10.4609,2.4902-15.8798c0.0013-0.5795-0.1691-1.1605-0.2696-1.739
			c-0.3595-2.0704-0.5105-4.2074-1.1405-6.1923c-0.7359-2.3187-1.8518-4.5687-4.1907-5.7603
			c-1.6509-0.8411-3.3786-1.4471-5.3136-1.4395c-1.974,0.0077-3.949-0.2337-5.9234-0.3674c-0.1354-0.0092-0.2702-0.0437-0.405-0.042
			c-3.3194,0.0406-4.1744,0.5149-3.8857,4.3294c0.1705,2.2526,0.3781,4.5059,0.6742,6.7449
			c0.9398,7.1069,1.9871,14.1924,2.2479,21.3812c0.1184,3.2632,0.0897,6.474-0.3591,9.6992
			c-0.3374,2.4248-3.6888,5.3083-6.1307,5.1612c-0.3464-0.0209-0.7524-0.1215-1.0117-0.332
			c-1.1171-0.9067-2.2783-1.7885-3.2332-2.8505c-0.3592-0.3995-0.4237-1.3327-0.2436-1.9027
			c0.8602-2.7219,1.0682-5.428,0.7433-8.2886c-0.2824-2.4867,0.1015-5.0416-0.0198-7.5562
			c-0.1214-2.518-0.4681-5.0278-0.7812-7.5331c-0.3681-2.9455-0.7701-5.8878-1.2258-8.8209
			c-0.3531-2.2727-0.8021-4.5309-1.2337-6.7907c-0.0574-0.3003-0.2158-0.6107-0.4088-0.8511
			c-1.3204-1.6442-2.6617-3.2715-3.9987-4.9023c-0.1418-0.1729-0.3428-0.3105-0.4418-0.5028
			c-0.3787-0.7349,0.2155-4.2978,0.9391-4.7291c1.4212-0.8472,2.8743-1.8627,4.4432-2.19c2.5373-0.5294,5.1788-0.5595,7.7764-0.8005
			C-197.8059-16.8833-197.7986-16.8001-197.7914-16.7169z"/>
		<path display="inline" d="M-79.3884,3.5246c3.4126,0.1233,5.2192,0.9984,6.2882,3.3323
			c1.7696,3.8634,3.3093,7.7939,4.2172,11.9532c0.5465,2.5039,1.1535,4.9993,1.5669,7.5257
			c0.259,1.5834,0.4794,3.2586,0.2414,4.8201c-0.495,3.2477-4.4032,4.9122-7.2241,3.1654
			c-3.4131-2.1135-5.3292-5.1652-5.4287-9.2586c-0.012-0.4916-0.0984-0.9871-0.2017-1.4698
			c-0.4998-2.3358-1.0257-4.666-1.5258-7.0018c-0.5279-2.4653-0.9944-4.9446-1.5647-7.3998
			C-83.7789,5.9234-81.7362,3.3368-79.3884,3.5246z"/>
		<path display="inline" d="M67.9243,20.4914c-0.5324-0.0113-1.0769,0.0963-1.6011,0.2152
			c-4.6671,1.0591-9.3183,2.1943-14.0069,3.1468c-0.8637,0.1754-2.0618-0.1127-2.7818-0.634
			c-2.2153-1.6039-4.5827-3.1399-5.5375-5.9481c-0.0716-0.2105-0.2141-0.398-0.3309-0.5919
			c-1.7929-2.9773-3.645-5.9209-5.3644-8.9401c-1.6139-2.8338-3.376-5.5335-6.5399-6.7749c-2.2615-0.8874-4.601-1.886-6.7727,0.5023
			c-2.1473,2.3614-4.6416,4.4176-6.693,6.8525c-1.615,1.9169-2.7521,4.2304-4.17,6.3212c-0.9391,1.3847-1.9993,2.6871-3.0053,4.0263
			c-0.167-0.062-0.3339-0.1241-0.5009-0.1862c-0.1106-1.1458-0.291-2.2899-0.3186-3.4377c-0.0748-3.1132-0.0712-6.2282-0.1254-9.342
			c-0.04-2.3049-0.102-4.6098-0.1952-6.9131C9.9435-2.13,9.9871-3.1178,9.6636-3.9444C8.6734-6.4741,6.3764-7.2707,3.9861-7.8088
			C3.487-7.9211,2.8911-7.8313,2.3912-7.6726C0.1924-6.9748-1.644-5.6814-3.2911-4.0897
			c-4.0305,3.8949-8.0849,7.7651-12.1014,11.6744c-3.0798,2.9977-6.1273,6.0291-9.1655,9.069
			c-0.8303,0.8308-1.6829,1.1514-2.9126,0.9684c-2.1332-0.3174-4.3001-0.5593-6.3296,0.6515
			c-1.5107,0.9013-3.096,1.6802-4.6631,2.4844c-2.1658,1.1114-4.3193,2.2542-6.5381,3.25c-0.5591,0.251-1.5194,0.2287-1.9718-0.1057
			c-0.3436-0.2539-0.3954-1.2824-0.1967-1.8278c1.1541-3.1688,2.3846-6.3116,3.6693-9.4301
			c0.4434-1.0763,0.9961-2.1521,1.7091-3.0636c1.6084-2.0562,3.3997-3.9697,5.0017-6.0305
			c0.4597-0.5913,0.7564-1.4947,0.7338-2.2431c-0.0912-3.0119-2.8329-5.8189-5.8353-6.1458
			c-0.9001-0.098-1.8118-0.1308-2.6987-0.2974c-1.8437-0.3465-3.2536,0.4876-4.2211,1.8379
			c-1.9867,2.7729-3.9059,5.6099-5.6242,8.554c-1.1481,1.967-1.7899,4.2234-2.8602,6.2434
			c-1.3042,2.4616-2.0791,5.0419-2.7104,7.7473c-1.1553,4.9503,0.1228,9.0669,3.6174,12.5952
			c0.6301,0.6361,1.3804,1.1823,2.1498,1.6461c2.8925,1.7435,6.032,2.5482,9.4127,2.2104c1.296-0.1295,2.5726-0.4981,3.8687-0.5726
			c1.8902-0.1086,2.1002,0.218,1.6903,2.0841c-0.2416,1.1006-0.5617,2.1898-0.7178,3.3022
			c-0.3321,2.3667-0.6184,4.7415-0.8472,7.1203c-0.12,1.2483-0.1417,2.5144-0.0954,3.7683
			c0.0697,1.8926,0.2558,3.7805,0.3586,5.6723c0.0996,1.8319-0.0955,3.7215,0.2926,5.4859c0.5424,2.466,1.0385,4.8893,1.2757,7.4291
			c0.3288,3.5198,1.2628,6.988,2.015,10.4616c0.5241,2.4201,1.0123,4.8691,1.817,7.2016c0.9501,2.7544,1.9649,5.4546,4.1085,7.7005
			c1.5593,1.6337,3.1691,2.8386,5.2624,3.5776c1.6009,0.5651,2.9324,0.1111,4.2156-0.7364c0.5613-0.3707,1.2182-0.7846,1.5069-1.346
			c0.949-1.8453,1.7965-3.7477,2.5815-5.6697c0.2815-0.6893,0.2324-1.5064,0.4081-2.2477c0.2904-1.226,0.7171-2.4234,0.9491-3.6586
			c0.4063-2.1634,0.7367-4.3423,1.0452-6.5223c0.2339-1.6531,0.5859-3.3246,0.532-4.9765
			c-0.1307-4.0139-0.4398-8.0231-0.731-12.0303c-0.1865-2.5659-0.4439-5.1276-0.7153-7.6863
			c-0.2757-2.5998-0.7397-5.1862-0.8836-7.7917c-0.2119-3.839-0.1377-7.6934-0.3317-11.5338
			c-0.1228-2.4279-0.3691-4.8702-0.8323-7.2532c-0.3083-1.5865-0.077-2.8982,0.954-4.0252
			c1.4917-1.6305,3.1013-3.1526,4.6298-4.7504c1.0288-1.0755,2.0041-2.2022,3.0039-3.3054c0.454-0.501,0.8673-1.0487,1.3719-1.4923
			c1.5869-1.3948,3.2209-2.736,4.8119-4.1262c1.0034-0.8768,1.6452-0.7504,1.8441,0.5735c0.1777,1.1826,0.0517,2.4084,0.099,3.6136
			c0.1573,4.0005,0.2999,8.002,0.5124,11.9997c0.1319,2.4821,0.2494,4.9782,0.6287,7.4286
			c0.2058,1.3295,0.5895,3.0511,1.5254,3.7547c1.6091,1.2096,3.6806,1.853,5.6276,2.5359c0.6257,0.2195,1.7129,0.0772,2.1749-0.3487
			c2.5178-2.3206,5.2152-4.5483,7.2586-7.2549c2.3823-3.1554,4.0899-6.8123,6.2145-10.1732
			c1.2893-2.0396,2.7325-3.9971,4.2607-5.8653c1.0405-1.2719,1.7341-1.0322,2.5247,0.4101
			c1.4043,2.5618,2.8508,5.1024,4.3477,7.6112c1.8954,3.1766,4.3027,5.8968,7.2805,8.1317
			c3.9691,2.9789,8.3702,4.0046,13.1675,2.8898c1.7773-0.413,3.404-1.4355,5.1477-2.0405c3.2026-1.1111,6.2706-2.3606,8.0047-5.5681
			c0.1243-0.2299,0.3397-0.451,0.5676-0.5779c1.7948-1.0003,1.8949-2.7408,1.9376-4.4747
			C69.8744,21.1285,69.2488,20.5196,67.9243,20.4914z M-26.2734,71.1472c-0.0252,1.7123,0.0074,3.4265-0.0666,5.1364
			c-0.0256,0.5903-0.297,1.1699-0.5567,2.1241c-0.3655-0.5871-0.5926-0.8064-0.6483-1.063
			c-0.8292-3.8236-1.6868-7.6422-2.4282-11.4832c-0.4343-2.2499-0.7898-4.5284-0.9658-6.8105
			c-0.1379-1.789-0.0177-3.6087,0.1154-5.4053c0.233-3.1431,0.5198-6.284,0.8828-9.4144c0.1004-0.8664,0.5496-1.6924,0.8387-2.5369
			c0.1222,0.009,0.2443,0.0179,0.3664,0.0269c0.232,1.9612,0.479,3.9207,0.6926,5.8839c0.41,3.768,0.8168,7.5365,1.1906,11.3083
			c0.1202,1.2122,0.1078,2.437,0.2003,3.6527c0.1362,1.7876,0.3561,3.5697,0.4542,5.3589
			C-26.1391,68.9943-26.2576,70.0725-26.2734,71.1472z"/>
		<path display="inline" fill="#FFFFFF" d="M-140.7631,19.5924c0.1994-0.6278,0.4749-1.2366,0.698-1.8587
			c0.1518-0.4231,0.2382-0.8636,0.4071-1.2817c0.5254-1.3009,1.0712-2.5961,1.619-3.8908c0.2854-0.6745,0.5916-1.3432,0.8884-2.0146
			c0.0775,0.0133,0.155,0.0266,0.2325,0.0399c0.1168,0.3416,0.3356,0.6982,0.3321,1.0222
			c-0.0127,1.1706-0.0742,2.3347-0.1696,3.4923c-0.0546,0.6617-0.1192,1.3299-0.3435,1.9522
			c-0.2863,0.7939-0.6852,1.5622-1.1314,2.3097c-0.7618,1.276-1.5949,2.5284-2.4106,3.7863
			c-0.0548,0.0844-0.2145,0.1323-0.4894,0.2933c-0.0898-0.3769-0.2159-0.6213-0.1865-0.8362
			c0.085-0.6226,0.2375-1.2324,0.3535-1.8493C-140.8908,20.37-140.8823,19.9677-140.7631,19.5924z"/>
	</g>
	<g>
		<path display="inline" d="M-139.0219,37.6857c-2.7348,0.113-4.931-1.0799-6.8774-2.8018
			c-0.5225-0.4622-0.8587-1.1448-1.2457-1.7485c-1.0056-1.5689-1.9909-1.8035-3.5531-0.9127
			c-2.2922,1.307-4.7062,1.9031-7.23,0.7443c-0.6961-0.3196-1.2539-0.9658-1.8309-1.5091
			c-0.3251-0.3061-0.4872-0.8283-0.8477-1.0466c-1.7081-1.0342-1.5924-2.7801-1.7788-4.3957
			c-0.0418-0.3625,0.1334-0.7907,0.3153-1.1317c1.1817-2.215,2.9174-3.5693,5.4064-4.3573
			c2.1859-0.6921,4.1859-2.0552,6.1639-3.2888c1.1903-0.7423,1.4259-2.0882,1.5376-3.4646c0.0806-0.9932,0.5047-1.9555,0.742-2.9397
			c0.2635-1.0932,0.538-2.1874,0.7219-3.2953c0.7542-4.5441,2.4311-8.7548,4.4085-12.8888c1.2513-2.6162,2.982-4.8634,4.9302-6.9262
			c1.2864-1.3621,2.9498-2.2789,4.9965-1.4573c1.0444,0.4192,2.0988,0.8137,3.1396,1.2415c0.2453,0.1008,0.5492,0.238,0.665,0.4476
			c1.1299,2.0454,2.6925,3.7615,2.7492,6.4427c0.0895,4.2328-0.6306,8.2859-1.8098,12.259
			c-0.6716,2.2628-1.7295,4.4738-2.9673,6.491c-1.9016,3.0991-4.1564,5.9794-6.1541,9.0229
			c-0.5714,0.8705-0.8729,1.9604-1.1158,2.9926c-0.2586,1.0995,0.3836,1.7656,1.4664,1.8131
			c0.7449,0.0327,1.5847,0.0108,2.2369-0.2958c4.3203-2.0306,8.1578-4.6516,11.48-8.2056c2.5251-2.7014,4.7227-5.5502,6.6269-8.6761
			c1.5935-2.6159,2.3128-5.5145,2.3425-8.5162c0.0128-1.2941-0.7049-2.5883-1.037-3.896c-0.161-0.6339-0.3094-1.3069-0.2654-1.9486
			c0.0675-0.9838,0.2647-1.9652,0.482-2.9307c0.3142-1.3957,1.2366-2.3638,2.5599-2.7467c4.1839-1.2107,7.8222-0.1043,9.4569,4.4848
			c0.4638,1.302,1.479,2.4653,2.431,3.5212c1.2039,1.3354,2.5728,2.5287,3.9231,3.7238c1.7854,1.5802,3.6693,3.0516,5.4179,4.6702
			c0.9878,0.9144,1.8904,1.9605,2.6539,3.0695c1.7577,2.5528,2.8168,5.2368,2.0928,8.5157
			c-0.4849,2.196-1.6841,3.8501-2.9443,5.5391c-0.9967,1.3357-1.9852,2.6926-3.1187,3.9083
			c-3.1811,3.4118-6.7644,6.0184-11.8182,5.2184c-2.0939-0.3315-4.8081-3.2645-4.8165-5.344
			c-0.0067-1.6467,1.0826-2.7511,2.3681-3.5837c0.7472-0.484,1.6159-0.7996,2.4588-1.1134
			c2.6872-1.0002,4.4375-3.0347,5.8459-5.3814c1.2133-2.0215-0.1687-4.1106-1.8054-5.7235
			c-0.6362-0.6269-1.4481-1.0792-2.1947-1.5895c-0.735-0.5024-1.3905-0.4198-1.7987,0.413
			c-0.5725,1.1681-1.0908,2.3627-1.6303,3.5469c-0.0372,0.0817-0.036,0.1885-0.0892,0.2541
			c-2.3171,2.8617-3.4404,6.548-6.3981,8.9933c-1.6243,1.3429-2.9683,3.0201-4.483,4.5013
			c-2.7807,2.7191-5.7142,5.2466-9.2068,7.0402c-0.8044,0.4131-1.6009,0.8429-2.3898,1.285
			C-132.004,37.5-135.4984,37.7107-139.0219,37.6857z"/>
		<path display="inline" d="M-194.155-25.0716c1.8509,0.0347,3.7268-0.1087,5.5468,0.1466c2.586,0.3627,5.1664,0.8888,7.685,1.5794
			c3.8066,1.0438,7.1891,2.9228,10.3513,5.3383c3.0897,2.3602,4.6816,5.6234,6.2874,8.9458
			c0.1168,0.2416,0.2054,0.5079,0.2482,0.7723c0.6902,4.2655,1.7374,8.5158,1.9335,12.8047
			c0.1479,3.2336-0.7043,6.5334-1.2759,9.7748c-0.9662,5.479-3.3038,10.4706-5.9782,15.2748
			c-1.3308,2.3905-3.1481,4.5107-4.7516,6.7487c-1.1048,1.542-2.1073,3.1758-3.3553,4.5926
			c-2.3878,2.7106-4.2627,5.9004-7.736,7.6051c-1.7039,0.8363-3.2919,0.7492-4.9922,0.5928
			c-0.2524-0.0232-0.5305-0.1385-0.7314-0.295c-2.6608-2.0722-3.637-5.472-2.3798-8.6183c0.2477-0.6199,0.8758-1.1082,1.384-1.5998
			c1.5177-1.4683,3.1931-2.7959,4.5647-4.3872c1.7303-2.0074,3.0847-4.3433,4.8485-6.3164
			c2.5296-2.8298,3.8275-6.3497,5.7712-9.5012c2.9652-4.8076,3.317-10.226,3.7674-15.6261
			c0.0482-0.5775-0.0747-1.1703-0.1279-1.7552c-0.1907-2.0927-0.1683-4.235-0.6355-6.2643
			c-0.5458-2.3706-1.4759-4.7036-3.7106-6.0807c-1.5774-0.972-3.2504-1.7158-5.1796-1.8649
			c-1.9681-0.1521-3.9171-0.5526-5.8743-0.8457c-0.1342-0.0201-0.2658-0.0654-0.4003-0.0747
			c-3.3118-0.2283-4.2023,0.1753-4.2234,4.0006c-0.0124,2.259,0.0121,4.5217,0.126,6.7774
			c0.3615,7.1597,0.8318,14.3067,0.5098,21.493c-0.1461,3.262-0.4346,6.46-1.143,9.6383c-0.5326,2.3895-4.1064,4.9923-6.5284,4.6481
			c-0.3435-0.0488-0.7401-0.182-0.9815-0.4128c-1.04-0.9941-2.126-1.9671-2.9919-3.1028c-0.3257-0.4272-0.3145-1.3626-0.0887-1.9162
			c1.0777-2.6433,1.504-5.3237,1.4118-8.2013c-0.0802-2.5014,0.5092-5.0169,0.5919-7.533c0.0828-2.5195-0.0596-5.0492-0.1689-7.5716
			c-0.1285-2.9656-0.291-5.9308-0.5078-8.8912c-0.168-2.2938-0.4327-4.5809-0.68-6.8682c-0.0329-0.304-0.1657-0.6262-0.3386-0.8814
			c-1.183-1.7457-2.3882-3.4762-3.5888-5.2099c-0.1273-0.1838-0.3165-0.3372-0.3997-0.5369
			c-0.3179-0.7631,0.5627-4.2662,1.3188-4.6376c1.4851-0.7294,3.0156-1.6239,4.6059-1.8232
			c2.5718-0.3223,5.2071-0.1385,7.8156-0.1684C-194.1561-25.2387-194.1556-25.1552-194.155-25.0716z"/>
		<path display="inline" d="M-76.2457-4.0284c3.3555,0.6357,5.0015,1.8494,5.6827,4.5345
			c1.1278,4.4448,2.0174,8.9284,2.2452,13.5669c0.1371,2.7923,0.3354,5.5844,0.3372,8.3815
			c0.0011,1.7531-0.0509,3.5999-0.5379,5.2561c-1.0129,3.4447-5.1467,4.6723-7.6555,2.3653
			c-3.0354-2.7913-4.4389-6.3785-3.8777-10.8267c0.0674-0.5342,0.0617-1.0836,0.0373-1.6215
			c-0.118-2.6034-0.2627-5.2046-0.381-7.808c-0.1249-2.7478-0.1868-5.5017-0.3553-8.2448
			C-80.975-2.0764-78.5377-4.5773-76.2457-4.0284z"/>
		<path display="inline" d="M67.203,23.6879c-4.7319,0.7156-9.4537,1.5083-14.1992,2.1159
			c-0.8742,0.1119-2.0481-0.2629-2.7281-0.8354c-2.0923-1.7613-4.3413-3.466-5.0886-6.3365
			c-0.0561-0.2152-0.1844-0.4126-0.2868-0.6144c-1.5708-3.1002-3.2031-6.1712-4.6975-9.3078
			c-1.4027-2.9441-2.9631-5.7652-6.0279-7.2342c-2.1907-1.0501-4.4511-2.2168-6.7913,0.0066
			c-2.3139,2.1983-4.9516,4.067-7.1754,6.3456c-1.7506,1.7939-3.0536,4.0182-4.6203,5.9999
			c-1.0376,1.3124-2.1901,2.5339-3.2912,3.7962c-0.162-0.0741-0.324-0.1481-0.486-0.2222c-0.0267-1.1508-0.123-2.305-0.0668-3.4518
			c0.1526-3.1104,0.3836-6.2168,0.5569-9.3262c0.1283-2.3016,0.2348-4.605,0.31-6.9089c0.0299-0.9179,0.1455-1.8999-0.1168-2.7479
			c-0.8029-2.5952-3.0357-3.5574-5.3803-4.2685C6.6242-9.4502,6.0233-9.4042,5.5131-9.2824
			C3.2693-8.7469,1.3434-7.5911-0.4156-6.1238C-4.7197-2.5334-9.0457,1.0305-13.3369,4.6361
			c-3.2904,2.7649-6.551,5.5657-9.8031,8.3757c-0.8887,0.7679-1.7624,1.0255-2.9756,0.7532
			c-2.1044-0.4722-4.1638-2.87-6.2764-1.8106c-1.5725,0.7887-3.2943,3.448-4.9159,4.1356
			c-2.2412,0.9504-4.4723,1.9329-6.7578,2.7641c-0.5759,0.2095-1.532,0.1172-1.9588-0.2494
			c-0.3242-0.2783-0.3007-1.3079-0.0628-1.8373c1.3823-3.0761,2.839-6.1207,4.3478-9.1371c0.5207-1.041,1.1505-2.0736,1.9282-2.9306
			c1.7542-1.9334,3.6804-3.7109,5.4286-5.6493c0.5016-0.5562,0.8635-1.4355,0.8956-2.1835
			c0.1289-3.0105-2.4006-6.0102-5.3711-6.5554c-0.8905-0.1634-1.7974-0.2627-2.6698-0.4936
			c-1.8135-0.4801-3.2806,0.2488-4.344,1.5248c-2.1838,2.6205-4.305,5.3098-6.2336,8.1206
			c-1.2886,1.878-2.0934,4.0815-3.3083,6.0179c-1.4804,2.3598-2.4416,4.8767-3.2687,7.5287
			c-1.5135,4.8528-0.5393,9.0517,2.6884,12.8257c0.582,0.6804,1.2904,1.2799,2.0239,1.7987c2.7575,1.95,5.8299,2.9818,9.2262,2.8916
			c1.302-0.0345,2.6021-0.309,3.9001-0.2886c1.8931,0.0297,2.0787,0.3707,1.5337,2.202c-0.3213,1.08-0.72,2.143-0.9569,3.241
			c-0.504,2.3361-0.9629,4.6837-1.3647,7.0394c-0.2108,1.2362-0.3248,2.4974-0.3703,3.7513
			c-0.0686,1.8926-0.0208,3.7891-0.0564,5.6834c-0.0344,1.8343-0.3669,3.7046-0.1087,5.4927c0.361,2.499,0.6788,4.9521,0.73,7.5024
			c0.071,3.5344,0.7493,7.0616,1.2459,10.5808c0.3461,2.4519,0.6542,4.93,1.2865,7.315c0.7465,2.8164,1.5615,5.5834,3.5355,7.9798
			c1.4359,1.7432,2.9534,3.0624,4.9872,3.9522c1.5554,0.6805,2.9165,0.3248,4.2581-0.4267
			c0.5869-0.3287,1.2722-0.6936,1.6011-1.2324c1.0812-1.7711,2.0653-3.6066,2.9885-5.4662
			c0.3311-0.6669,0.3418-1.4854,0.5711-2.2119c0.3791-1.2015,0.892-2.3646,1.2136-3.5796c0.5631-2.1279,1.0517-4.2769,1.5185-6.4286
			c0.3539-1.6317,0.827-3.273,0.8939-4.9244c0.1626-4.0127,0.147-8.0338,0.1491-12.0516c0.0013-2.5727-0.0684-5.1463-0.1523-7.718
			c-0.0852-2.6129-0.3592-5.2264-0.3125-7.8354c0.0689-3.8442,0.4243-7.6829,0.5111-11.5272
			c0.0547-2.4304-0.0126-4.8842-0.3006-7.2946c-0.1917-1.6047,0.1348-2.8961,1.2453-3.9448
			c1.6068-1.5173,3.3232-2.9178,4.9643-4.3998c1.1046-0.9975,2.1595-2.05,3.2372-3.0774c0.4894-0.4665,0.9415-0.9826,1.4772-1.3881
			c1.6844-1.2753,3.412-2.4936,5.1003-3.764c1.0648-0.8012,1.6956-0.6283,1.7973,0.7066c0.0909,1.1925-0.1243,2.4058-0.1651,3.6112
			c-0.1352,4.0013-0.285,8.0026-0.3649,12.0051c-0.0496,2.4851-0.1147,4.9832,0.0847,7.4546c0.1082,1.341,0.3653,3.086,1.2473,3.856
			c1.5165,1.3238,3.5355,2.1167,5.4274,2.9399c0.6081,0.2646,1.7027,0.2021,2.1945-0.189c2.6805-2.1307,5.5333-4.1555,7.7689-6.7057
			c2.6062-2.9731,4.5763-6.4956,6.9405-9.6924c1.4348-1.94,3.0169-3.787,4.6775-5.5386c1.1306-1.1926,1.8048-0.9029,2.488,0.5932
			c1.2136,2.6575,2.4707,5.2969,3.7805,7.9082c1.6584,3.3064,3.8607,6.1951,6.6675,8.6415
			c3.7411,3.2607,8.0555,4.6049,12.9214,3.8433c1.8027-0.2822,3.4997-1.1832,5.283-1.6593c3.2752-0.8744,8.7615-5.3939,8.998-5.5039
			c1.863-0.8667,2.0899-2.5952,2.2591-4.3213C70.714,24.3679,67.7345,23.6075,67.203,23.6879z M-28.8285,67.2348
			c-0.1502,1.7059-0.2427,3.4179-0.4414,5.1178c-0.0686,0.5869-0.3816,1.1451-0.7102,2.0778
			c-0.3216-0.6122-0.5322-0.8476-0.5689-1.1075c-0.5479-3.8739-1.1245-7.745-1.5835-11.6298
			c-0.2689-2.2756-0.4571-4.5739-0.466-6.8628c-0.0069-1.7943,0.2457-3.6004,0.5096-5.3825
			c0.4618-3.1177,0.9771-6.2293,1.5677-9.3248c0.1634-0.8568,0.6717-1.6477,1.0217-2.4689
			c0.1212,0.0178,0.2423,0.0357,0.3635,0.0536c0.0882,1.9729,0.1916,3.9452,0.2613,5.9187c0.1339,3.7879,0.2645,7.5761,0.362,11.365
			c0.0314,1.2178-0.0704,2.4384-0.0668,3.6576c0.0053,1.7927,0.0945,3.5862,0.0618,5.3777
			C-28.5374,65.0974-28.7343,66.1642-28.8285,67.2348z"/>
		<path display="inline" fill="#FFFFFF" d="M-140.1343,7.4472c0.2188-0.6213,0.513-1.2212,0.7555-1.8361
			c0.1648-0.4181,0.2649-0.8558,0.4467-1.2684c0.5655-1.2839,1.1514-2.5616,1.7391-3.8386c0.3062-0.6653,0.633-1.3242,0.9505-1.986
			c0.077,0.0157,0.154,0.0314,0.2311,0.0471c0.1061,0.3451,0.3138,0.7083,0.3002,1.032c-0.0491,1.1697-0.1467,2.3313-0.278,3.4853
			c-0.0751,0.6597-0.1604,1.3256-0.404,1.9406c-0.3109,0.7846-0.7334,1.5402-1.2027,2.2734
			c-0.8011,1.2517-1.6727,2.4776-2.5271,3.7096c-0.0574,0.0827-0.2185,0.1256-0.4983,0.278
			c-0.0781-0.3795-0.1964-0.6277-0.1604-0.8416c0.1043-0.6197,0.2757-1.2244,0.4108-1.8374
			C-140.2861,8.2204-140.2651,7.8185-140.1343,7.4472z"/>
	</g>
	<g>
		<path display="inline" d="M-139.0219,37.6857c-2.7348,0.113-4.931-1.0799-6.8774-2.8018
			c-0.5225-0.4622-0.8587-1.1448-1.2457-1.7485c-1.0056-1.5689-1.9909-1.8035-3.5531-0.9127
			c-2.2922,1.307-4.7062,1.9031-7.23,0.7443c-0.6961-0.3196-1.2539-0.9658-1.8309-1.5091
			c-0.3251-0.3061-0.4872-0.8283-0.8477-1.0466c-1.7081-1.0342-1.5924-2.7801-1.7788-4.3957
			c-0.0418-0.3625,0.1334-0.7907,0.3153-1.1317c1.1817-2.215,2.9174-3.5693,5.4064-4.3573
			c2.1859-0.6921,4.1859-2.0552,6.1639-3.2888c1.1903-0.7423,1.4259-2.0882,1.5376-3.4646c0.0806-0.9932,0.5047-1.9555,0.742-2.9397
			c0.2635-1.0932,0.538-2.1874,0.7219-3.2953c0.7542-4.5441,2.4311-8.7548,4.4085-12.8888c1.2513-2.6162,2.982-4.8634,4.9302-6.9262
			c1.2864-1.3621,2.9498-2.2789,4.9965-1.4573c1.0444,0.4192,2.0988,0.8137,3.1396,1.2415c0.2453,0.1008,0.5492,0.238,0.665,0.4476
			c1.1299,2.0454,2.6925,3.7615,2.7492,6.4427c0.0895,4.2328-0.6306,8.2859-1.8098,12.259
			c-0.6716,2.2628-1.7295,4.4738-2.9673,6.491c-1.9016,3.0991-4.1564,5.9794-6.1541,9.0229
			c-0.5714,0.8705-0.8729,1.9604-1.1158,2.9926c-0.2586,1.0995,0.3836,1.7656,1.4664,1.8131
			c0.7449,0.0327,1.5847,0.0108,2.2369-0.2958c4.3203-2.0306,8.1578-4.6516,11.48-8.2056c2.5251-2.7014,4.7227-5.5502,6.6269-8.6761
			c1.5935-2.6159,2.3128-5.5145,2.3425-8.5162c0.0128-1.2941-0.7049-2.5883-1.037-3.896c-0.161-0.6339-0.3094-1.3069-0.2654-1.9486
			c0.0675-0.9838,0.2647-1.9652,0.482-2.9307c0.3142-1.3957,1.2366-2.3638,2.5599-2.7467c4.1839-1.2107,7.8222-0.1043,9.4569,4.4848
			c0.4638,1.302,1.479,2.4653,2.431,3.5212c1.2039,1.3354,2.5728,2.5287,3.9231,3.7238c1.7854,1.5802,3.6693,3.0516,5.4179,4.6702
			c0.9878,0.9144,1.8904,1.9605,2.6539,3.0695c1.7577,2.5528,2.8168,5.2368,2.0928,8.5157
			c-0.4849,2.196-1.6841,3.8501-2.9443,5.5391c-0.9967,1.3357-1.9852,2.6926-3.1187,3.9083
			c-3.1811,3.4118-6.7644,6.0184-11.8182,5.2184c-2.0939-0.3315-4.8081-3.2645-4.8165-5.344
			c-0.0067-1.6467,1.0826-2.7511,2.3681-3.5837c0.7472-0.484,1.6159-0.7996,2.4588-1.1134
			c2.6872-1.0002,4.4375-3.0347,5.8459-5.3814c1.2133-2.0215-0.1687-4.1106-1.8054-5.7235
			c-0.6362-0.6269-1.4481-1.0792-2.1947-1.5895c-0.735-0.5024-1.3905-0.4198-1.7987,0.413
			c-0.5725,1.1681-1.0908,2.3627-1.6303,3.5469c-0.0372,0.0817-0.036,0.1885-0.0892,0.2541
			c-2.3171,2.8617-3.4404,6.548-6.3981,8.9933c-1.6243,1.3429-2.9683,3.0201-4.483,4.5013
			c-2.7807,2.7191-5.7142,5.2466-9.2068,7.0402c-0.8044,0.4131-1.6009,0.8429-2.3898,1.285
			C-132.004,37.5-135.4984,37.7107-139.0219,37.6857z"/>
		<path display="inline" d="M-192.155-25.0716c1.8509,0.0347,3.7268-0.1087,5.5468,0.1466c2.586,0.3627,5.1664,0.8888,7.685,1.5794
			c3.8066,1.0438,7.1891,2.9228,10.3513,5.3383c3.0897,2.3602,4.6816,5.6234,6.2874,8.9458
			c0.1168,0.2416,0.2054,0.5079,0.2482,0.7723c0.6902,4.2655,1.7374,8.5158,1.9335,12.8047
			c0.1479,3.2336-0.7043,6.5334-1.2759,9.7748c-0.9662,5.479-3.3038,10.4706-5.9782,15.2748
			c-1.3308,2.3905-3.1481,4.5107-4.7516,6.7487c-1.1048,1.542-2.1073,3.1758-3.3553,4.5926
			c-2.3878,2.7106-4.2627,5.9004-7.736,7.6051c-1.7039,0.8363-3.2919,0.7492-4.9922,0.5928
			c-0.2524-0.0232-0.5305-0.1385-0.7314-0.295c-2.6608-2.0722-3.637-5.472-2.3798-8.6183c0.2477-0.6199,0.8758-1.1082,1.384-1.5998
			c1.5177-1.4683,3.1931-2.7959,4.5647-4.3872c1.7303-2.0074,3.0847-4.3433,4.8485-6.3164
			c2.5296-2.8298,3.8275-6.3497,5.7712-9.5012c2.9652-4.8076,3.317-10.226,3.7674-15.6261
			c0.0482-0.5775-0.0747-1.1703-0.1279-1.7552c-0.1907-2.0927-0.1683-4.235-0.6355-6.2643
			c-0.5458-2.3706-1.4759-4.7036-3.7106-6.0807c-1.5774-0.972-3.2504-1.7158-5.1796-1.8649
			c-1.9681-0.1521-3.9171-0.5526-5.8743-0.8457c-0.1342-0.0201-0.2658-0.0654-0.4003-0.0747
			c-3.3118-0.2283-4.2023,0.1753-4.2234,4.0006c-0.0124,2.259,0.0121,4.5217,0.126,6.7774
			c0.3615,7.1597,0.8318,14.3067,0.5098,21.493c-0.1461,3.262-0.4346,6.46-1.143,9.6383c-0.5326,2.3895-4.1064,4.9923-6.5284,4.6481
			c-0.3435-0.0488-0.7401-0.182-0.9815-0.4128c-1.04-0.9941-2.126-1.9671-2.9919-3.1028c-0.3257-0.4272-0.3145-1.3626-0.0887-1.9162
			c1.0777-2.6433,1.504-5.3237,1.4118-8.2013c-0.0802-2.5014,0.5092-5.0169,0.5919-7.533c0.0828-2.5195-0.0596-5.0492-0.1689-7.5716
			c-0.1285-2.9656-0.291-5.9308-0.5078-8.8912c-0.168-2.2938-0.4327-4.5809-0.68-6.8682c-0.0329-0.304-0.1657-0.6262-0.3386-0.8814
			c-1.183-1.7457-2.3882-3.4762-3.5888-5.2099c-0.1273-0.1838-0.3165-0.3372-0.3997-0.5369
			c-0.3179-0.7631,0.5627-4.2662,1.3188-4.6376c1.4851-0.7294,3.0156-1.6239,4.6059-1.8232
			c2.5718-0.3223,5.2071-0.1385,7.8156-0.1684C-192.1561-25.2387-192.1556-25.1552-192.155-25.0716z"/>
		<path display="inline" d="M-78.2457-4.0284c3.3555,0.6357,5.0015,1.8494,5.6827,4.5345
			c1.1278,4.4448,2.0174,8.9284,2.2452,13.5669c0.1371,2.7923,0.3354,5.5844,0.3372,8.3815
			c0.0011,1.7531-0.0509,3.5999-0.5379,5.2561c-1.0129,3.4447-5.1467,4.6723-7.6555,2.3653
			c-3.0354-2.7913-4.4389-6.3785-3.8777-10.8267c0.0674-0.5342,0.0617-1.0836,0.0373-1.6215
			c-0.118-2.6034-0.2627-5.2046-0.381-7.808c-0.1249-2.7478-0.1868-5.5017-0.3553-8.2448
			C-82.975-2.0764-80.5377-4.5773-78.2457-4.0284z"/>
		<path display="inline" d="M61.203,23.6879c-4.7319,0.7156-9.4537,1.5083-14.1992,2.1159
			c-0.8742,0.1119-2.0481-0.2629-2.7281-0.8354c-2.0923-1.7613-4.3413-3.466-5.0886-6.3365
			c-0.0561-0.2152-0.1844-0.4126-0.2868-0.6144c-1.5708-3.1002-3.2031-6.1712-4.6975-9.3078
			c-1.4027-2.9441-2.9631-5.7652-6.0279-7.2342c-2.1907-1.0501-4.4511-2.2168-6.7913,0.0066
			c-2.3139,2.1983-4.9516,4.067-7.1754,6.3456c-1.7506,1.7939-3.0536,4.0182-4.6203,5.9999
			c-1.0376,1.3124-2.1901,2.5339-3.2912,3.7962c-0.162-0.0741-0.324-0.1481-0.486-0.2222c-0.0267-1.1508-0.123-2.305-0.0668-3.4518
			c0.1526-3.1104,0.3836-6.2168,0.5569-9.3262c0.1283-2.3016,0.2348-4.605,0.31-6.9089C6.6408-3.2032,6.7563-4.1853,6.494-5.0333
			C5.6911-7.6285,3.4583-8.5906,1.1137-9.3017C0.6242-9.4502,0.0233-9.4042-0.4869-9.2824
			c-2.2438,0.5355-4.1697,1.6913-5.9287,3.1586c-4.3041,3.5903-8.6302,7.1542-12.9213,10.7599
			c-3.2904,2.7649-6.551,5.5657-9.8031,8.3757c-0.8887,0.7679-1.7624,1.0255-2.9756,0.7532
			c-2.1044-0.4722-4.1638-2.87-6.2764-1.8106c-1.5725,0.7887-3.2943,3.448-4.9159,4.1356
			c-2.2412,0.9504-4.4723,1.9329-6.7578,2.7641c-0.5759,0.2095-1.532,0.1172-1.9588-0.2494
			c-0.3242-0.2783-0.3007-1.3079-0.0628-1.8373c1.3823-3.0761,2.839-6.1207,4.3478-9.1371c0.5207-1.041,1.1505-2.0736,1.9282-2.9306
			c1.7542-1.9334,3.6804-3.7109,5.4286-5.6493c0.5016-0.5562,0.8635-1.4355,0.8956-2.1835
			c0.1289-3.0105-2.4006-6.0102-5.3711-6.5554c-0.8905-0.1634-1.7974-0.2627-2.6698-0.4936
			c-1.8135-0.4801-3.2806,0.2488-4.344,1.5248c-2.1838,2.6205-4.305,5.3098-6.2336,8.1206
			c-1.2886,1.878-2.0934,4.0815-3.3083,6.0179c-1.4804,2.3598-2.4416,4.8767-3.2687,7.5287
			c-1.5135,4.8528-0.5393,9.0517,2.6884,12.8257c0.582,0.6804,1.2904,1.2799,2.0239,1.7987c2.7575,1.95,5.8299,2.9818,9.2262,2.8916
			c1.302-0.0345,2.6021-0.309,3.9001-0.2886c1.8931,0.0297,2.0787,0.3707,1.5337,2.202c-0.3213,1.08-0.72,2.143-0.9569,3.241
			c-0.504,2.3361-0.9629,4.6837-1.3647,7.0394c-0.2108,1.2362-0.3248,2.4974-0.3703,3.7513
			c-0.0686,1.8926-0.0208,3.7891-0.0564,5.6834c-0.0344,1.8343-0.3669,3.7046-0.1087,5.4927c0.361,2.499,0.6788,4.9521,0.73,7.5024
			c0.071,3.5344,0.7493,7.0616,1.2459,10.5808c0.3461,2.4519,0.6542,4.93,1.2865,7.315c0.7465,2.8164,1.5615,5.5834,3.5355,7.9798
			c1.4359,1.7432,2.9534,3.0624,4.9872,3.9522c1.5554,0.6805,2.9165,0.3248,4.2581-0.4267
			c0.5869-0.3287,1.2722-0.6936,1.6011-1.2324c1.0812-1.7711,2.0653-3.6066,2.9885-5.4662
			c0.3311-0.6669,0.3418-1.4854,0.5711-2.2119c0.3791-1.2015,0.892-2.3646,1.2136-3.5796c0.5631-2.1279,1.0517-4.2769,1.5185-6.4286
			c0.3539-1.6317,0.827-3.273,0.8939-4.9244c0.1626-4.0127,0.147-8.0338,0.1491-12.0516c0.0013-2.5727-0.0684-5.1463-0.1523-7.718
			c-0.0852-2.6129-0.3592-5.2264-0.3125-7.8354c0.0689-3.8442,0.4243-7.6829,0.5111-11.5272
			c0.0547-2.4304-0.0126-4.8842-0.3006-7.2946c-0.1917-1.6047,0.1348-2.8961,1.2453-3.9448
			c1.6068-1.5173,3.3232-2.9178,4.9643-4.3998c1.1046-0.9975,2.1595-2.05,3.2372-3.0774c0.4894-0.4665,0.9415-0.9826,1.4772-1.3881
			c1.6844-1.2753,3.412-2.4936,5.1003-3.764c1.0648-0.8012,1.6956-0.6283,1.7973,0.7066c0.0909,1.1925-0.1243,2.4058-0.1651,3.6112
			c-0.1352,4.0013-0.285,8.0026-0.3649,12.0051c-0.0496,2.4851-0.1147,4.9832,0.0847,7.4546c0.1082,1.341,0.3653,3.086,1.2473,3.856
			c1.5165,1.3238,3.5355,2.1167,5.4274,2.9399c0.6081,0.2646,1.7027,0.2021,2.1945-0.189c2.6805-2.1307,5.5333-4.1555,7.7689-6.7057
			c2.6062-2.9731,4.5763-6.4956,6.9405-9.6924c1.4348-1.94,3.0169-3.787,4.6775-5.5386c1.1306-1.1926,1.8048-0.9029,2.488,0.5932
			c1.2136,2.6575,2.4707,5.2969,3.7805,7.9082c1.6584,3.3064,3.8607,6.1951,6.6675,8.6415
			c3.7411,3.2607,8.0555,4.6049,12.9214,3.8433c1.8027-0.2822,3.4997-1.1832,5.283-1.6593
			c3.2752-0.8744,8.7615-5.3939,8.9981-5.5039c1.863-0.8667,2.0899-2.5952,2.2591-4.3213
			C64.714,24.3679,61.7345,23.6075,61.203,23.6879z M-34.8285,67.2348c-0.1502,1.7059-0.2427,3.4179-0.4414,5.1178
			c-0.0686,0.5869-0.3816,1.1451-0.7102,2.0778c-0.3216-0.6122-0.5322-0.8476-0.5689-1.1075
			c-0.5479-3.8739-1.1245-7.745-1.5835-11.6298c-0.2689-2.2756-0.4571-4.5739-0.466-6.8628
			c-0.0069-1.7943,0.2457-3.6004,0.5096-5.3825c0.4618-3.1177,0.9771-6.2293,1.5677-9.3248
			c0.1634-0.8568,0.6717-1.6477,1.0217-2.4689c0.1212,0.0178,0.2423,0.0357,0.3635,0.0536
			c0.0882,1.9729,0.1916,3.9452,0.2613,5.9187c0.1339,3.7879,0.2645,7.5761,0.362,11.365c0.0314,1.2178-0.0704,2.4384-0.0668,3.6576
			c0.0053,1.7927,0.0945,3.5862,0.0618,5.3777C-34.5374,65.0974-34.7343,66.1642-34.8285,67.2348z"/>
		<path display="inline" fill="#FFFFFF" d="M-140.1343,7.4472c0.2188-0.6213,0.513-1.2212,0.7555-1.8361
			c0.1648-0.4181,0.2649-0.8558,0.4467-1.2684c0.5655-1.2839,1.1514-2.5616,1.7391-3.8386c0.3062-0.6653,0.633-1.3242,0.9505-1.986
			c0.077,0.0157,0.154,0.0314,0.2311,0.0471c0.1061,0.3451,0.3138,0.7083,0.3002,1.032c-0.0491,1.1697-0.1467,2.3313-0.278,3.4853
			c-0.0751,0.6597-0.1604,1.3256-0.404,1.9406c-0.3109,0.7846-0.7334,1.5402-1.2027,2.2734
			c-0.8011,1.2517-1.6727,2.4776-2.5271,3.7096c-0.0574,0.0827-0.2185,0.1256-0.4983,0.278
			c-0.0781-0.3795-0.1964-0.6277-0.1604-0.8416c0.1043-0.6197,0.2757-1.2244,0.4108-1.8374
			C-140.2861,8.2204-140.2651,7.8185-140.1343,7.4472z"/>
	</g>
	<g>
		<path display="inline" d="M78.8887,36.7446c-1.7779,0.0734-3.2057-0.7021-4.471-1.8215
			c-0.3397-0.3005-0.5583-0.7442-0.8098-1.1367c-0.6538-1.02-1.2943-1.1725-2.3099-0.5934
			c-1.4901,0.8497-3.0595,1.2372-4.7003,0.4839c-0.4525-0.2078-0.8152-0.6279-1.1903-0.9811
			c-0.2114-0.199-0.3167-0.5385-0.5511-0.6804c-1.1104-0.6723-1.0352-1.8073-1.1564-2.8576
			c-0.0272-0.2356,0.0867-0.514,0.205-0.7357c0.7682-1.44,1.8966-2.3204,3.5147-2.8327c1.4211-0.4499,2.7213-1.3361,4.0072-2.1381
			c0.7738-0.4826,0.9269-1.3575,0.9996-2.2523c0.0524-0.6457,0.3281-1.2713,0.4824-1.9111c0.1713-0.7107,0.3497-1.422,0.4693-2.1423
			c0.4903-2.9542,1.5805-5.6915,2.866-8.3791c0.8135-1.7008,1.9386-3.1617,3.2051-4.5028c0.8363-0.8855,1.9176-1.4815,3.2482-0.9474
			c0.679,0.2725,1.3644,0.529,2.0411,0.8071c0.1595,0.0655,0.3571,0.1547,0.4323,0.291c0.7345,1.3297,1.7504,2.4454,1.7873,4.1884
			c0.0582,2.7517-0.4099,5.3867-1.1765,7.9696c-0.4366,1.471-1.1244,2.9084-1.929,4.2198
			c-1.2363,2.0147-2.7021,3.8872-4.0008,5.8658c-0.3714,0.5659-0.5675,1.2745-0.7253,1.9455
			c-0.1681,0.7148,0.2494,1.1478,0.9533,1.1787c0.4842,0.0213,1.0302,0.007,1.4542-0.1923c2.8086-1.3201,5.3034-3.024,7.4632-5.3345
			c1.6416-1.7562,3.0703-3.6082,4.3082-5.6403c1.0359-1.7006,1.5036-3.585,1.5228-5.5364c0.0083-0.8413-0.4583-1.6826-0.6741-2.5328
			c-0.1047-0.4121-0.2011-0.8496-0.1725-1.2668c0.0439-0.6396,0.1721-1.2776,0.3134-1.9052
			c0.2042-0.9074,0.8039-1.5367,1.6642-1.7857c2.72-0.7871,5.0852-0.0678,6.1479,2.9156c0.3015,0.8464,0.9615,1.6027,1.5804,2.2891
			c0.7827,0.8681,1.6726,1.6439,2.5504,2.4208c1.1607,1.0273,2.3854,1.9839,3.5222,3.0361
			c0.6422,0.5944,1.2289,1.2745,1.7253,1.9955c1.1427,1.6596,1.8312,3.4045,1.3605,5.5361c-0.3152,1.4276-1.0948,2.503-1.9141,3.601
			c-0.648,0.8683-1.2906,1.7505-2.0275,2.5408c-2.0681,2.218-4.3976,3.9125-7.683,3.3925
			c-1.3612-0.2155-3.1258-2.1222-3.1312-3.4742c-0.0043-1.0705,0.7038-1.7885,1.5395-2.3298
			c0.4858-0.3147,1.0505-0.5198,1.5985-0.7238c1.7469-0.6503,2.8848-1.9728,3.8004-3.4984
			c0.7887-1.3142-0.1097-2.6723-1.1737-3.7208c-0.4136-0.4076-0.9414-0.7016-1.4268-1.0333
			c-0.4778-0.3266-0.904-0.2729-1.1693,0.2685c-0.3722,0.7594-0.7091,1.536-1.0599,2.3059
			c-0.0242,0.0531-0.0234,0.1225-0.058,0.1652c-1.5063,1.8604-2.2366,4.2569-4.1595,5.8466
			c-1.056,0.873-1.9297,1.9634-2.9144,2.9263c-1.8078,1.7677-3.7148,3.4108-5.9854,4.5769c-0.523,0.2686-1.0407,0.548-1.5536,0.8354
			C83.451,36.6238,81.1793,36.7608,78.8887,36.7446z"/>
		<path display="inline" d="M118.3994,9.6261c2.1814,0.4133,3.2515,1.2023,3.6944,2.9479c0.7332,2.8896,1.3115,5.8044,1.4596,8.8199
			c0.0891,1.8153,0.218,3.6304,0.2192,5.4489c0.0007,1.1397-0.0331,2.3403-0.3497,3.417c-0.6585,2.2394-3.3459,3.0375-4.9768,1.5377
			c-1.9733-1.8146-2.8857-4.1467-2.5209-7.0384c0.0438-0.3473,0.0401-0.7044,0.0243-1.0542
			c-0.0767-1.6925-0.1708-3.3835-0.2477-5.076c-0.0812-1.7864-0.1214-3.5767-0.231-5.36
			C115.3249,10.8951,116.9094,9.2693,118.3994,9.6261z"/>
		<path display="inline" d="M209.0554,27.6445c-3.0762,0.4652-6.1459,0.9805-9.2309,1.3756
			c-0.5683,0.0728-1.3315-0.1709-1.7736-0.5431c-1.3602-1.1451-2.8223-2.2533-3.3081-4.1194
			c-0.0364-0.1399-0.1199-0.2682-0.1865-0.3994c-1.0212-2.0155-2.0823-4.0119-3.0539-6.051
			c-0.9119-1.914-1.9263-3.7479-3.9188-4.703c-1.4242-0.6827-2.8936-1.4411-4.415,0.0043
			c-1.5043,1.4292-3.2191,2.6439-4.6647,4.1253c-1.138,1.1662-1.9851,2.6123-3.0037,3.9006
			c-0.6746,0.8532-1.4238,1.6473-2.1396,2.4679c-0.1053-0.0481-0.2106-0.0963-0.3159-0.1445
			c-0.0174-0.7481-0.08-1.4985-0.0434-2.244c0.0992-2.0221,0.2494-4.0415,0.362-6.063c0.0834-1.4963,0.1526-2.9937,0.2015-4.4915
			c0.0195-0.5967,0.0946-1.2351-0.0759-1.7864c-0.522-1.6872-1.9735-2.3127-3.4977-2.775
			c-0.3182-0.0965-0.7089-0.0666-1.0405,0.0126c-1.4587,0.3481-2.7108,1.0995-3.8542,2.0534
			c-2.7981,2.3341-5.6105,4.651-8.4002,6.995c-2.1391,1.7974-4.2588,3.6183-6.373,5.4451
			c-0.5778,0.4992-1.1458,0.6667-1.9344,0.4897c-1.368-0.307-2.7069-1.8658-4.0803-1.177
			c-1.0223,0.5127-2.1416,2.2415-3.1958,2.6886c-1.457,0.6178-2.9075,1.2566-4.3933,1.797
			c-0.3744,0.1362-0.996,0.0762-1.2734-0.1621c-0.2108-0.1809-0.1955-0.8502-0.0408-1.1944
			c0.8987-1.9998,1.8456-3.9791,2.8265-5.9401c0.3385-0.6768,0.748-1.3481,1.2535-1.9052c1.1404-1.2569,2.3926-2.4125,3.5291-3.6726
			c0.3261-0.3616,0.5614-0.9332,0.5822-1.4195c0.0838-1.9572-1.5606-3.9072-3.4918-4.2617
			c-0.5789-0.1063-1.1685-0.1708-1.7357-0.3209c-1.1789-0.3121-2.1327,0.1618-2.8241,0.9913
			c-1.4197,1.7036-2.7987,3.4519-4.0525,5.2792c-0.8377,1.2209-1.3609,2.6534-2.1507,3.9123
			c-0.9624,1.5341-1.5873,3.1703-2.125,4.8945c-0.984,3.1548-0.3506,5.8845,1.7477,8.338c0.3783,0.4424,0.8389,0.8321,1.3158,1.1693
			c1.7927,1.2677,3.7901,1.9384,5.998,1.8798c0.8465-0.0224,1.6917-0.2009,2.5355-0.1876c1.2307,0.0193,1.3514,0.241,0.9971,1.4315
			c-0.2089,0.7021-0.4681,1.3932-0.6221,2.107c-0.3276,1.5187-0.626,3.0449-0.8872,4.5764
			c-0.1371,0.8037-0.2112,1.6236-0.2407,2.4387c-0.0446,1.2304-0.0135,2.4633-0.0366,3.6948
			c-0.0224,1.1925-0.2385,2.4084-0.0706,3.5708c0.2347,1.6246,0.4413,3.2194,0.4746,4.8774c0.0461,2.2977,0.4871,4.5907,0.81,6.8786
			c0.225,1.594,0.4253,3.205,0.8363,4.7555c0.4853,1.8309,1.0151,3.6298,2.2984,5.1877c0.9335,1.1333,1.92,1.9909,3.2422,2.5693
			c1.0112,0.4424,1.896,0.2112,2.7682-0.2774c0.3815-0.2137,0.8271-0.4509,1.0409-0.8012c0.7029-1.1514,1.3427-2.3446,1.9428-3.5536
			c0.2152-0.4335,0.2222-0.9657,0.3713-1.438c0.2465-0.7811,0.5799-1.5372,0.789-2.3271c0.3661-1.3834,0.6837-2.7804,0.9872-4.1792
			c0.2301-1.0607,0.5376-2.1278,0.5811-3.2013c0.1057-2.6087,0.0956-5.2228,0.0969-7.8347c0.0008-1.6725-0.0444-3.3456-0.099-5.0175
			c-0.0554-1.6987-0.2335-3.3977-0.2032-5.0938c0.0448-2.4991,0.2758-4.9947,0.3323-7.4939c0.0356-1.58-0.0082-3.1752-0.1954-4.7422
			c-0.1246-1.0432,0.0876-1.8828,0.8096-2.5645c1.0446-0.9864,2.1604-1.8969,3.2273-2.8603
			c0.7181-0.6485,1.4039-1.3327,2.1045-2.0006c0.3182-0.3033,0.6121-0.6388,0.9603-0.9024c1.0951-0.8291,2.2182-1.6211,3.3157-2.447
			c0.6922-0.5208,1.1023-0.4085,1.1684,0.4593c0.0591,0.7752-0.0808,1.564-0.1073,2.3477
			c-0.0879,2.6013-0.1853,5.2025-0.2372,7.8045c-0.0322,1.6156-0.0746,3.2396,0.0551,4.8463
			c0.0703,0.8718,0.2374,2.0062,0.8109,2.5068c0.9859,0.8606,2.2985,1.3761,3.5284,1.9112c0.3953,0.172,1.1069,0.1314,1.4267-0.1229
			c1.7426-1.3851,3.5972-2.7015,5.0506-4.3594c1.6943-1.9328,2.975-4.2228,4.512-6.301c0.9328-1.2612,1.9613-2.4619,3.0408-3.6007
			c0.735-0.7753,1.1733-0.587,1.6174,0.3857c0.789,1.7276,1.6062,3.4435,2.4577,5.1412c1.0781,2.1495,2.5099,4.0275,4.3345,5.6178
			c2.4321,2.1198,5.2369,2.9937,8.4003,2.4985c1.1719-0.1834,2.2751-0.7692,3.4344-1.0787
			c2.1292-0.5685,5.6959-3.5066,5.8497-3.5781c1.2112-0.5634,1.3586-1.6871,1.4686-2.8093
			C211.3378,28.0866,209.4008,27.5923,209.0554,27.6445z M146.625,55.9545c-0.0976,1.109-0.1578,2.222-0.287,3.3271
			c-0.0446,0.3815-0.2481,0.7445-0.4617,1.3507c-0.2091-0.398-0.3459-0.551-0.3699-0.72c-0.3562-2.5184-0.731-5.035-1.0294-7.5606
			c-0.1748-1.4794-0.2972-2.9735-0.303-4.4616c-0.0045-1.1665,0.1598-2.3406,0.3313-3.4992
			c0.3002-2.0268,0.6352-4.0497,1.0191-6.0621c0.1062-0.557,0.4367-1.0712,0.6642-1.605c0.0788,0.0116,0.1575,0.0232,0.2363,0.0348
			c0.0573,1.2826,0.1245,2.5648,0.1698,3.8478c0.087,2.4625,0.172,4.9252,0.2354,7.3884c0.0204,0.7917-0.0458,1.5852-0.0434,2.3778
			c0.0034,1.1655,0.0614,2.3314,0.0402,3.4961C146.8143,54.565,146.6863,55.2585,146.625,55.9545z"/>
		<path display="inline" fill="#FFFFFF" d="M78.1655,17.0864c0.1423-0.4039,0.3335-0.7939,0.4911-1.1936
			c0.1072-0.2718,0.1722-0.5563,0.2904-0.8246c0.3676-0.8347,0.7485-1.6653,1.1306-2.4955
			c0.1991-0.4325,0.4115-0.8609,0.6179-1.2911c0.0501,0.0102,0.1001,0.0204,0.1502,0.0306c0.069,0.2243,0.204,0.4605,0.1951,0.6709
			c-0.0319,0.7604-0.0953,1.5156-0.1807,2.2658c-0.0488,0.4289-0.1043,0.8617-0.2626,1.2616
			c-0.2021,0.5101-0.4768,1.0013-0.7818,1.4779c-0.5208,0.8138-1.0874,1.6107-1.6429,2.4116
			c-0.0373,0.0537-0.142,0.0817-0.3239,0.1807c-0.0508-0.2467-0.1277-0.4081-0.1043-0.5471c0.0678-0.4029,0.1792-0.796,0.267-1.1945
			C78.0668,17.5891,78.0805,17.3279,78.1655,17.0864z"/>
		<g display="inline">
			<path d="M77.2776,28.8967c-0.4094-0.0144-0.9785,0.2028-1.2232,0.5133c-1.6145,2.049-3.9997,2.9868-6.1158,4.2897
				c-1.699,1.0461-3.4081,0.6764-4.8454-0.6444c-1.2085-1.1105-2.4753-2.2095-3.4429-3.516
				c-1.0178-1.3743-1.699-2.9958-2.5547-4.4936c-0.1979-0.3464-0.507-0.6292-0.7649-0.9413
				c-0.2377,0.3293-0.4979,0.6449-0.7093,0.9903c-1.1473,1.8748-2.1686,3.8393-3.4527,5.6142
				c-1.3964,1.93-2.9491,3.7666-4.5965,5.4881c-0.9972,1.042-2.2498,1.8745-3.4852,2.6447
				c-1.4639,0.9126-3.0018,1.792-4.8246,1.6665c-0.5367-0.037-1.1171-0.2627-1.5635-0.5684
				c-0.4899-0.3354-0.8352-0.8759-1.2662-1.3043c-1.2922-1.2843-0.6698-2.8082-0.4899-4.2395
				c0.393-3.1274,1.2633-6.1475,2.4257-9.067c0.8873-2.2286,1.8981-4.4117,2.939-6.5741c0.6626-1.3764,1.4535-2.6942,2.2375-4.0082
				c0.6544-1.0968,1.3858-2.1476,2.0768-3.2228c0.623-0.9694,3.1984-1.7309,4.3312-1.5284
				c1.5396,0.2754,2.2683,1.3384,2.6203,2.5886c0.1826,0.6484-0.0889,1.6649-0.5318,2.2082
				c-2.0983,2.5745-4.0185,5.2558-5.3637,8.2967c-0.9108,2.0588-1.6653,4.1873-2.4628,6.2948
				c-0.0887,0.2344-0.001,0.5355,0.0049,0.8057c0.261-0.1327,0.5911-0.2038,0.7724-0.4074
				c2.6185-2.9396,4.5998-6.2866,6.1361-9.8924c0.8559-2.0088,1.7246-4.0347,2.3049-6.1311
				c0.431-1.5572,0.4395-3.2375,0.5786-4.8679c0.1856-2.1763,0.1506-4.3853,0.5152-6.5285
				c0.3702-2.1764,0.9662-4.3428,1.7269-6.4169c0.9054-2.4683,3.5098-3.8225,6.1946-1.8445
				c1.1441,0.8429,1.7154,3.1804,1.2644,4.5204c-0.278,0.8258-0.4086,1.7303-0.4389,2.6053
				c-0.1105,3.1901-0.992,6.2227-1.7211,9.2959c-0.4777,2.0135-0.2411,4.0613,0.1092,6.0984
				c0.3734,2.1715,0.7766,4.3176,1.731,6.3311c0.4176,0.881,0.8024,1.7103,1.8859,1.9425c0.247,0.0529,0.5173,0.2989,0.6502,0.5291
				c0.519,0.8995,1.3264,0.8492,2.0609,0.5287C70.9764,25.5224,78.213,28.9297,77.2776,28.8967z"/>
		</g>
	</g>
	<g>
		<path display="inline" d="M118.3994,9.6261c3.2219,0.8053,3.7221,2.5889,4.3395,5.6675c0.7546,3.7628,1.0033,7.6096,1.0399,11.441
			c0.0104,1.0891,0.0009,2.1973-0.3209,3.2377c-0.3218,1.0404-1.004,2.0203-2.0048,2.4496
			c-4.2204,1.8099-5.4688-5.3463-5.5555-7.8917C115.823,22.3469,113.6994,8.4514,118.3994,9.6261z"/>
		<path display="inline" d="M209.0554,27.6445c-1.9229,0.2908-3.8468,0.5209-5.735,0.943c-1.8332,0.4098-3.8854,0.6382-5.563-0.3992
			c-1.328-0.8212-2.119-2.2641-2.8516-3.6431c-0.8793-1.6551-1.7586-3.3103-2.6379-4.9654
			c-0.8118-1.5281-1.5059-3.5489-2.6004-4.8838c-1.3705-1.6716-4.6791-3.2165-6.4989-1.4876
			c-1.5043,1.4292-3.2191,2.6439-4.6647,4.1253c-1.138,1.1662-1.9851,2.6123-3.0037,3.9006
			c-0.6746,0.8532-1.4238,1.6473-2.1396,2.4679c-0.1053-0.0481-0.2106-0.0963-0.3159-0.1445
			c-0.08-3.4474,0.2099-6.8865,0.3561-10.328c0.0594-1.3982,0.4684-3.4794-0.0882-4.7688
			c-0.5585-1.2937-2.0801-1.8866-3.3215-2.2631c-0.3182-0.0965-0.7089-0.0666-1.0405,0.0126
			c-1.4587,0.3481-2.7108,1.0995-3.8542,2.0534c-2.7981,2.3341-5.6105,4.651-8.4002,6.995
			c-2.1391,1.7974-4.2588,3.6183-6.373,5.4451c-0.5778,0.4992-1.1458,0.6667-1.9344,0.4897
			c-1.368-0.307-2.7069-1.8658-4.0809-1.1767c-1.0878,0.5461-1.6927,1.7369-2.6723,2.3971
			c-1.2684,0.8548-3.0328,1.3388-4.4354,1.958c-0.5046,0.2228-1.1588,0.4226-1.5522,0.0359
			c-0.3546-0.3486-0.2419-0.9366-0.0897-1.41c1.216-3.7831,3.349-7.2679,6.1647-10.0718c0.5879-0.5854,1.2168-1.1573,1.595-1.8957
			c1.4327-2.7975-2.6717-6.0765-5.2824-5.5371c-0.8122,0.1678-1.5253,0.6454-2.1697,1.1675
			c-4.0828,3.3076-7.1055,9.0929-8.6491,14.042c-0.984,3.1548-0.3506,5.8845,1.7477,8.338
			c0.3783,0.4424,0.8389,0.8321,1.3158,1.1693c1.7927,1.2677,3.7901,1.9384,5.998,1.8798c0.8465-0.0224,1.6917-0.2009,2.5355-0.1876
			c1.2307,0.0193,1.3514,0.241,0.9971,1.4315c-0.2089,0.7021-0.4681,1.3932-0.6221,2.107
			c-1.6193,7.5064-1.4156,15.5353-0.5596,23.165c0.4211,3.7528,0.9179,7.7183,2.7099,11.1026
			c0.8457,1.5971,2.0096,3.0463,3.6024,3.9455c2.1492,1.2132,4.3077-0.2089,5.5683-2.0951
			c0.9764-1.4609,1.4489-3.1946,1.8372-4.9084c1.4788-6.5261,1.9494-13.2328,1.9719-19.9107
			c0.0114-3.4081-0.0945-6.8153-0.2411-10.2199c-0.1214-2.8164,0.2783-5.7371-0.0505-8.4899
			c-0.2939-2.4606,2.5718-4.2085,4.1967-5.6743c1.4728-1.3286,2.9884-2.6096,4.5439-3.8404
			c0.563-0.4455,2.7034-2.6054,2.8453-0.8008c0.0591,0.7752-0.0808,1.564-0.1073,2.3477c-0.1114,3.2985-0.2505,6.5896-0.3553,9.8856
			c-0.0539,1.6966,0.1201,3.4673,0.9952,4.9218c0.8751,1.4545,2.598,2.5013,4.2597,2.1545
			c0.8422-0.1758,1.5776-0.6754,2.2608-1.1983c3.4417-2.634,5.4608-6.0642,7.986-9.4781c0.9328-1.2612,1.9613-2.4619,3.0408-3.6007
			c1.4048-1.4819,2.1912,1.6628,2.6154,2.6007c0.949,2.098,1.9832,4.1747,3.3837,6.0134c1.7959,2.3579,4.2744,4.3251,7.1794,4.9127
			c2.3422,0.4738,4.8005,0.019,7.0043-0.905c2.7738-1.163,7.0559-3.1407,7.3798-6.4447
			C211.3378,28.0866,209.4008,27.5923,209.0554,27.6445z M146.625,55.9545c-0.0976,1.109-0.1578,2.222-0.287,3.3271
			c-0.0446,0.3815-0.2481,0.7445-0.4617,1.3507c-0.2091-0.398-0.3459-0.551-0.3699-0.72c-0.3562-2.5184-0.731-5.035-1.0294-7.5606
			c-0.1748-1.4794-0.2972-2.9735-0.303-4.4616c-0.0045-1.1665,0.1598-2.3406,0.3313-3.4992
			c0.3002-2.0268,0.6352-4.0497,1.0191-6.0621c0.1062-0.557,0.4367-1.0712,0.6642-1.605c0.0788,0.0116,0.1575,0.0232,0.2363,0.0348
			c0.0573,1.2826,0.1245,2.5648,0.1698,3.8478c0.087,2.4625,0.172,4.9252,0.2354,7.3884c0.0204,0.7917-0.0458,1.5852-0.0434,2.3778
			c0.0034,1.1655,0.0614,2.3314,0.0402,3.4961C146.8143,54.565,146.6863,55.2585,146.625,55.9545z"/>
		<path display="inline" d="M111.4851,18.2453c-0.4964-0.7209-1.0832-1.401-1.7253-1.9955
			c-1.1367-1.0522-2.3615-2.0088-3.5222-3.0361c-0.8779-0.7769-1.7678-1.5527-2.5504-2.4208
			c-0.6189-0.6864-1.2789-1.4427-1.5804-2.2891c-1.0627-2.9834-3.428-3.7027-6.1479-2.9156
			c-0.8602,0.2489-1.4599,0.8783-1.6642,1.7856c-0.1413,0.6277-0.2695,1.2657-0.3134,1.9053
			c-0.0286,0.4172,0.0679,0.8547,0.1725,1.2668c0.2159,0.8502,0.6824,1.6915,0.6741,2.5328
			c-0.0193,1.9515-0.4869,3.8359-1.5228,5.5364c-1.2379,2.0322-2.6666,3.8842-4.3082,5.6404
			c-2.1598,2.3105-4.6545,4.0143-7.4631,5.3345c-0.424,0.1993-0.97,0.2135-1.4542,0.1923
			c-0.7039-0.0309-1.1215-0.4639-0.9533-1.1787c0.1578-0.671,0.3539-1.3796,0.7253-1.9455
			c1.2987-1.9786,2.7645-3.8511,4.0008-5.8658c0.8046-1.3114,1.4924-2.7488,1.929-4.2198c0.7675-2.5858,1.4618-5.5619,1.1083-8.2672
			c-0.2327-1.7812-1.1082-3.571-2.668-4.4619c-1.1351-0.6483-2.5663-0.7511-3.7823-0.2716
			c-1.9449,0.7668-3.3375,3.4014-4.1954,5.1948c-1.9348,4.0168-2.6865,8.2268-3.8724,12.4976
			c-0.3443,1.2399-0.4191,1.8818-1.5076,2.5409c-1.1104,0.6723-2.1956,1.389-3.4443,1.7844
			c-0.0339,0.0107-0.0608,0.0272-0.0943,0.0383c-0.2698-0.1604-0.5344-0.3443-0.7889-0.5763
			c-1.3592-1.2389-2.0924-3.0254-2.5248-4.8129c-1.009-4.1715-0.5914-8.5554,0.1638-12.7802
			c0.7551-4.2249,1.843-8.4041,2.1687-12.6835c0.1729-2.2711-0.2385-4.4907-2.6531-5.2676
			c-2.0442-0.6578-3.9603,0.5846-4.7283,2.4876c-0.8268,2.0486-1.524,5.1942-1.9639,7.3575
			c-0.4331,2.1304-0.5331,6.3384-0.7885,8.5076c-0.1913,1.6251-0.2857,4.3038-0.7665,5.8464
			c-0.6473,2.0767-1.5805,4.0736-2.5004,6.054c-1.7214,3.7057-3.7012,7.1725-6.6995,9.9923
			c-0.6304,0.5929-1.2426,1.114-2.0595,0.8285c-0.3033-0.106-0.8072-0.9086-0.8215-2.4098
			c-0.0143-1.5013,2.3267-4.3026,3.6402-6.2615c1.8519-2.7617,4.8366-4.7092,7.0165-7.2151c0.46-0.5289,0.764-1.5361,0.6024-2.1901
			c-0.3118-1.2609-1.0743-2.1147-2.5359-2.6713C48.93,8.6313,42.5074,15.8561,40.232,19.8581
			c-1.3021,2.2901-3.6032,6.4191-3.8809,9.2136c-0.2717,2.7343,0.5375,5.4154,2.2554,7.4966
			c0.7273,0.8811,1.6996,1.6023,2.8188,1.8316c1.2697,0.2601,2.591-0.1332,3.7438-0.7258c1.6741-0.8605,3.5002-1.9214,4.8505-3.2446
			c1.7018-1.6677,2.1588-1.9385,3.6163-3.8227c1.3404-1.7328,2.4241-3.6636,3.631-5.5006c0.2224-0.3384,0.4926-0.6455,0.7407-0.967
			c0.2477,0.3201,0.5476,0.6127,0.7343,0.9653c0.8072,1.5245,1.4361,3.1671,2.4093,4.5732
			c0.9252,1.3369,2.1561,2.4758,3.3284,3.6246c1.3941,1.3662,3.0905,1.7905,4.8222,0.7994c0.133-0.0761,0.2692-0.1475,0.4039-0.2211
			c0.54-0.1551,1.0712-0.3905,1.5922-0.6876c1.0156-0.5791,1.6561-0.4266,2.3099,0.5934c0.2515,0.3925,0.4701,0.8362,0.8098,1.1367
			c1.2654,1.1194,2.6931,1.8948,4.4711,1.8214c10.0169,0.0709,18.2896-9.6167,22.3697-17.9407
			c0.2654-0.5414,0.6915-0.5951,1.1694-0.2685c1.3793,0.9428,2.9671,1.9969,2.7574,3.9063c-0.126,1.147-0.8313,2.1672-1.7119,2.9129
			c-1.1645,0.986-2.5986,1.3505-3.8441,2.1573c-0.8356,0.5413-1.5438,1.2592-1.5394,2.3297c0.0055,1.3519,1.77,3.2587,3.1312,3.4742
			c3.2854,0.5201,5.6149-1.1745,7.683-3.3925c0.7369-0.7903,1.3795-1.6724,2.0275-2.5408c0.8192-1.098,1.5989-2.1733,1.9141-3.601
			C113.3163,21.6498,112.6278,19.9049,111.4851,18.2453z M78.1198,19.4485c-0.6989,0.1798-0.0049-1.8959,0.1288-2.3612
			c0.282-1.0115,0.6314-2.0042,1.0451-2.9695c0.4349-1.0147,0.7505-2.0869,1.5795-2.8541c-0.1053,0.0974,0.1241,1.897,0.101,2.176
			c-0.0671,0.8113-0.2494,1.6133-0.5391,2.3741c-0.2838,0.7454-0.6966,1.3791-1.1152,2.0503
			C79.0488,18.2988,78.6814,19.304,78.1198,19.4485z"/>
	</g>
</g>
<g id="Layer_2">
	<g>
		<path fill="#FFFFFF" d="M19.9503,33.7214V23.4455c0-0.7002-0.3921-1.1763-0.98-1.1763c-0.6719,0-1.1201,0.8682-1.1201,1.5122
			v9.9399h-2.4917V15.0735h2.4917v6.7202c0.4482-1.0923,1.3159-1.708,2.2959-1.708c1.4282,0,2.2964,1.1758,2.2964,2.9399v10.6958
			H19.9503z"/>
		<path fill="#FFFFFF" d="M29.0221,33.9455c-2.0161,0-3.4722-1.5122-3.4722-3.8081v-6.2441c0-2.2681,1.4561-3.8076,3.4722-3.8076
			c2.0439,0,3.3311,1.5396,3.3311,3.8076v3.4443h-4.3672v3.1919c0,0.728,0.3638,1.2319,1.064,1.2319
			c0.7559,0,1.064-0.5039,1.064-1.2319v-1.6519h2.2393v1.2876C32.3531,32.4333,31.066,33.9455,29.0221,33.9455z M30.086,23.5295
			c0-0.7559-0.3359-1.2603-1.0361-1.2603c-0.6719,0-1.064,0.5044-1.064,1.2603v2.3799h2.1001V23.5295z"/>
		<path fill="#FFFFFF" d="M35.4332,33.7214V15.0735h2.4922v18.6479H35.4332z"/>
		<path fill="#FFFFFF" d="M45.9049,33.9172c-0.9521,0-1.5684-0.3638-2.1563-1.1758v5.5439h-2.4912V20.2815h1.9873l0.168,1.3159
			c0.4766-1.064,1.3447-1.54,2.2959-1.54c1.624,0,2.5762,1.3159,2.5762,3.1641v7.6719
			C48.2847,32.6013,47.2486,33.9172,45.9049,33.9172z M45.8209,23.5574c0-0.8677-0.3916-1.3438-1.0078-1.3438
			c-0.5879,0-1.0645,0.4761-1.0645,1.2881v6.9438c0,0.7559,0.4199,1.2598,1.0645,1.2598c0.6162,0,1.0078-0.4761,1.0078-1.3159
			V23.5574z"/>
		<path fill="#FFFFFF" d="M60.0728,33.7214V23.4455c0-0.644-0.3076-1.0923-0.8398-1.0923c-0.6719,0-0.9521,0.8682-0.9521,1.5122
			v9.856h-2.5195V23.3615c0-0.644-0.3369-1.0923-0.8125-1.0923c-0.6719,0-1.0078,0.8682-1.0078,1.5122v9.9399h-2.4922V20.2815
			h2.2119l0.1963,1.7358c0.3916-1.2876,1.1758-1.9316,2.1836-1.9316c1.0361,0,1.708,0.7559,2.0166,1.876
			c0.4199-1.2881,1.2314-1.876,2.2393-1.876c1.4287,0,2.2686,1.1196,2.2686,2.9399v10.6958H60.0728z"/>
		<path fill="#FFFFFF" d="M69.7603,34.5334c-0.5039,2.52-1.0635,3.8359-3.5,3.8359h-0.6152v-2.0718h0.5039
			c0.8672,0,1.0635-0.3643,1.2598-1.2319l0.2236-1.54l-2.5762-13.2441h2.4365l1.0078,6.6079l0.3359,2.688l0.3076-2.688
			l0.9805-6.6079h2.3516L69.7603,34.5334z"/>
		<path fill="#FF0000" d="M86.1685,37.8655c-3.0518-2.7158-4.8721-6.7759-4.8721-12.6563c0-5.8799,1.8203-9.9399,4.8721-12.6836
			l0.5879,0.6157c-1.9316,2.3521-3.3604,5.7964-3.3604,12.0679c0,6.2441,1.4287,9.688,3.3604,12.04L86.1685,37.8655z"/>
		<path fill="#FF0000" d="M94.5953,33.7214l-0.168-1.5679c-0.4756,1.3438-1.5117,1.8198-2.4922,1.8198
			c-1.6797,0-2.7715-1.2881-2.7715-3.332v-6.7759c0-2.1001,1.0635-3.416,2.6318-3.416c1.1201,0,1.792,0.4761,2.3516,1.3721v-6.748
			h2.0166v18.6479H94.5953z M94.1471,24.0334c0-1.0918-0.5879-1.792-1.5117-1.792s-1.4834,0.6162-1.4834,1.876v6.2158
			c0,1.2603,0.5596,1.876,1.4834,1.876c0.8125,0,1.5117-0.6157,1.5117-1.792V24.0334z"/>
		<path fill="#FF0000" d="M103.107,33.9455c-2.0996,0-3.4717-1.4839-3.4717-3.8643v-5.7397c0-2.3521,1.3721-3.8921,3.4717-3.8921
			c2.0723,0,3.4443,1.54,3.4443,3.8921v5.7397C106.5514,32.4616,105.1793,33.9455,103.107,33.9455z M104.5631,23.9494
			c0-0.9521-0.5039-1.6519-1.4561-1.6519s-1.4561,0.6997-1.4561,1.6519v6.4961c0,0.98,0.5039,1.624,1.4561,1.624
			s1.4561-0.644,1.4561-1.624V23.9494z"/>
		<path fill="#FF0000" d="M112.5992,22.4934v7.3359c0,1.5679,0.1123,2.772,0.5322,3.8921h-2.0166
			c-0.4199-1.0078-0.5596-2.1001-0.5596-3.8921v-7.3359h-1.2598v-1.792h1.3994v-2.2119l1.9043-0.7002v2.9121h1.4844v1.792H112.5992z
			"/>
		<path fill="#FF0000" d="M116.5191,37.8655l-0.5879-0.6162c1.9043-2.3521,3.332-5.7959,3.332-12.04
			c0-6.2715-1.4277-9.7158-3.332-12.0679l0.5879-0.6157c3.0244,2.7437,4.8721,6.8037,4.8721,12.6836
			C121.3912,31.0896,119.5435,35.1496,116.5191,37.8655z"/>
		<path fill="#FFFFFF" d="M136.0631,33.7214l-0.168-1.3159c-0.4473,1.0918-1.3154,1.54-2.2676,1.54
			c-1.6523,0-2.6045-1.3159-2.6045-3.1641v-7.5322c0-1.8477,1.0361-3.1636,2.4365-3.1636c0.9521,0,1.5684,0.3916,2.0996,1.1758
			v-6.188h2.4922v18.6479H136.0631z M135.5592,23.5574c0-0.7837-0.4199-1.2881-1.0361-1.2881c-0.6436,0-1.0635,0.4761-1.0635,1.3442
			v6.8599c0,0.8398,0.4199,1.3159,1.0635,1.3159c0.5605,0,1.0361-0.4761,1.0361-1.2881V23.5574z"/>
		<path fill="#FFFFFF" d="M144.6871,33.9455c-2.0166,0-3.4727-1.5122-3.4727-3.8081v-6.2441c0-2.2681,1.4561-3.8076,3.4727-3.8076
			c2.0439,0,3.332,1.5396,3.332,3.8076v3.4443h-4.3682v3.1919c0,0.728,0.3643,1.2319,1.0635,1.2319
			c0.7568,0,1.0645-0.5039,1.0645-1.2319v-1.6519h2.2402v1.2876C148.0191,32.4333,146.731,33.9455,144.6871,33.9455z
			 M145.7506,23.5295c0-0.7559-0.3359-1.2603-1.0361-1.2603c-0.6719,0-1.0635,0.5044-1.0635,1.2603v2.3799h2.0996V23.5295z"/>
		<path fill="#FFFFFF" d="M154.1793,33.9455c-2.2119,0-3.4443-1.3999-3.4443-3.6401v-0.812h2.1563v1.0078
			c0,0.9243,0.4199,1.3442,1.1758,1.3442s1.1758-0.3921,1.1758-1.1758c0-1.2324-0.6152-1.708-2.0713-3.0522
			c-1.3164-0.98-2.3242-2.2119-2.3242-4.0039c0-2.2119,1.3994-3.5278,3.3037-3.5278c2.1563,0,3.2764,1.4556,3.2764,3.5278v0.8398
			h-2.0723v-1.0361c0-0.6997-0.3916-1.1479-1.1484-1.1479c-0.6719,0-1.0352,0.4204-1.0352,1.064
			c0,0.9805,0.5313,1.5962,1.7637,2.6602c1.4277,1.0923,2.6035,2.2681,2.6035,4.3398
			C157.5387,32.3215,156.3912,33.9455,154.1793,33.9455z"/>
		<path fill="#FFFFFF" d="M160.3951,33.7214V20.2815h2.4922v13.4399H160.3951z M160.4508,18.5735v-2.604h2.3799v2.604H160.4508z"/>
		<path fill="#FFFFFF" d="M172.7701,21.5134c-0.252,0-0.4756-0.0562-0.7559-0.1958c0.6436,0.6719,0.9795,1.4561,0.9795,2.3799
			v1.7358c0,2.0723-1.3994,3.584-3.4434,3.584c-0.168,0-0.5605-0.0278-0.7002-0.084c-0.5039,0-0.8398,0.4482-0.8398,0.9243
			c0,0.5596,0.4199,0.9238,1.8203,0.9238c2.4639,0,3.6396,1.1758,3.6396,3.1079v1.064c0,2.2119-1.4277,3.584-3.8086,3.584
			c-2.2119,0-3.8076-1.1758-3.8076-3.1641v-0.98c0-0.896,0.5039-1.6519,1.4004-2.0161c-0.8398-0.3076-1.3164-1.0918-1.3164-1.876
			c0-0.9238,0.7559-1.876,1.7363-2.0156c-1.0361-0.4199-1.54-1.792-1.54-3.1641v-1.6519c0-2.0723,1.4834-3.584,3.416-3.584
			c0.6719,0,1.0635,0.168,1.2881,0.168c0.9795,0,1.2314-0.5601,1.2314-1.3442h1.8203c0.084,0.4761,0.084,0.728,0.084,1.0083
			C173.9742,20.9817,173.442,21.5134,172.7701,21.5134z M171.2301,34.0012c0-0.6719-0.4199-1.1758-1.54-1.1758
			c-1.0361,0-1.5117,0.5039-1.5117,1.1758v1.2041c0,0.6719,0.5039,1.2041,1.5117,1.2041c1.0645,0,1.54-0.5601,1.54-1.2319V34.0012z
			 M170.6422,23.3894c0-0.6997-0.4199-1.2041-1.0918-1.2041s-1.0645,0.5044-1.0645,1.2041v2.436
			c0,0.6719,0.3926,1.2041,1.0645,1.2041s1.0918-0.5322,1.0918-1.2041V23.3894z"/>
		<path fill="#FFFFFF" d="M180.7779,33.7214V23.4455c0-0.7002-0.3916-1.1763-0.9521-1.1763c-0.7002,0-1.1475,0.8682-1.1475,1.5122
			v9.9399h-2.4922V20.2815h2.2119l0.1396,1.7642c0.4482-1.3159,1.3447-1.96,2.3525-1.96c1.5117,0,2.3799,1.1758,2.3799,2.9399
			v10.6958H180.7779z"/>
	</g>
	<g>
	</g>
	<g>
	</g>
	<g>
	</g>
	<g>
	</g>
	<g>
	</g>
	<g>
	</g>
	<g>
	</g>
	<g>
	</g>
	<g>
	</g>
	<g>
	</g>
	<g>
	</g>
	<g>
	</g>
	<g>
	</g>
	<g>
	</g>
	<g>
	</g>
</g>
</svg>
